<svg width="1819" height="1298" viewBox="0 0 1819 1298" fill="none" xmlns="http://www.w3.org/2000/svg">
<g clip-path="url(#clip0_309_95)">
<path d="M85.9573 445.67C91.541 450.921 98.2499 455.254 105.782 456.681C113.314 458.109 119.46 457.015 127.065 456.067C132.607 455.369 137.524 449.91 139.305 445.826C146.774 428.69 154.254 411.553 161.703 394.406C168.63 378.467 160.651 376.904 159.088 371.466C157.338 365.383 151.369 361.684 145.868 358.549" fill="#DE9E40"/>
<path d="M1219.78 46.2741C1219.78 46.2741 1239.91 48.4826 1234.8 62.8483C1229.68 77.214 1179.85 104.841 1167.51 103.737C1155.15 102.633 1142.38 117.55 1142.38 117.55C1142.38 117.55 1155.37 94.0382 1178.35 84.9646C1179.08 84.6833 1179.82 84.4437 1180.56 84.1833C1183.81 83.0686 1198.17 76.7244 1219.78 46.2637V46.2741Z" fill="#E7AB43" stroke="#9D6434" stroke-width="3.12524" stroke-miterlimit="10"/>
<path d="M796.96 1096.79V1097.49C796.96 1104.64 802.753 1110.44 809.909 1110.44H1073.01C1080.16 1110.44 1085.96 1104.65 1085.96 1097.49C1085.96 1090.36 1080.19 1084.56 1073.05 1084.54L809.951 1083.85C802.784 1083.82 796.971 1089.63 796.971 1096.79H796.96Z" fill="#7EB7FA"/>
<path d="M1282.98 798.521C1327.22 767.185 1544.07 793.583 1603.77 791.218C1638.91 789.833 1726.39 798.333 1759.71 793.145C1773.66 790.968 1781.69 776.352 1776.32 762.872C1748.57 693.335 1695.84 544.345 1678.46 553.262C1657.99 563.763 1685.01 664.583 1659.29 680.678C1633.57 696.763 1291.12 604.099 1200.47 680.522" fill="#DE9E40"/>
<path d="M1791.25 861.753C1766.06 855.95 1721.84 962.313 1687.85 959.479C1653.86 956.646 1429.04 649.903 1295.9 656.987C1228.98 660.55 1182.22 681.885 1140.87 703.511C1130.4 708.991 1117.83 708.429 1107.82 702.168C1025.68 650.747 972.349 597.524 939.357 560.125C930.127 549.666 926.45 535.405 929.596 521.81C940.044 476.744 980.412 413.301 1002.11 379.84C1029.49 337.629 1153.15 128.613 1149.09 117.185C1143.46 101.319 1108.64 72.0561 1075.56 77.7649C1042.47 83.4736 984.1 181.69 924.512 267.603C893.989 311.616 843.735 369.256 815.045 403.405C793.731 428.761 762.76 467.983 732.435 481.317L726.601 483.88C722.455 479.327 717.1 474.535 715.652 472.618C712.6 468.577 708.485 463.034 705.401 458.482C717.35 424.875 714.579 397.165 697.64 370.496C691.254 360.433 682.66 358.037 679.128 345.942C674.19 329.045 688.327 311.741 676.826 296.438C666.534 282.739 645.022 276.218 631.823 287.156C623.489 294.063 616.592 310.45 614.321 321.034C613.3 299.522 601.935 295.271 590.83 296.407C579.246 297.584 569.245 305.053 564.359 315.627C558.525 328.253 551.327 340.337 556.754 352.755C552.702 345.557 541.024 346.557 535.596 352.786C521.731 368.715 527.002 410.562 536.492 427.969C548.504 449.971 555.775 461.774 576.006 474.775C589.361 483.359 608.79 491.714 625.197 490.714L644.584 516.768C619.176 521.612 592.694 518.33 569.016 507.048C522.408 484.859 394.387 435.011 352.915 422.115L152.681 365.298C152.681 365.298 172.776 437.355 102.104 451.909C83.0299 455.836 217.947 496.485 317.579 540.592C400.107 577.137 544.774 646.351 580.631 662.112C586.288 664.592 591.153 668.582 594.716 673.624C682.92 798.31 759.114 857.607 785.939 862.076C801.002 864.586 852.736 838.866 981.037 827.104L961.244 867.42C961.244 867.42 1210.88 842.293 1261.87 843.71C1322.81 845.398 1507.18 1012.13 1562.42 1048.95C1594.93 1070.63 1667.77 1134.93 1701.24 1152.15C1715.25 1159.36 1732.35 1151.93 1736.63 1136.77C1758.72 1058.55 1818.98 868.149 1791.24 861.763L1791.25 861.753Z" fill="#F2A91F"/>
<mask id="mask0_309_95" style="mask-type:alpha" maskUnits="userSpaceOnUse" x="100" y="77" width="1699" height="1078">
<path d="M1791.25 861.753C1766.06 855.95 1721.84 962.313 1687.85 959.479C1653.86 956.646 1429.04 649.903 1295.9 656.987C1228.98 660.55 1182.22 681.885 1140.87 703.511C1130.4 708.991 1117.83 708.429 1107.82 702.168C1025.68 650.747 972.349 597.524 939.357 560.125C930.127 549.666 926.45 535.405 929.596 521.81C940.044 476.744 980.412 413.301 1002.11 379.84C1029.49 337.629 1153.15 128.613 1149.09 117.185C1143.46 101.319 1108.64 72.0561 1075.56 77.7649C1042.47 83.4736 984.1 181.69 924.512 267.603C893.989 311.616 843.735 369.256 815.045 403.405C793.731 428.761 762.76 467.983 732.435 481.317L726.601 483.88C722.455 479.327 717.1 474.535 715.652 472.618C712.6 468.577 708.485 463.034 705.401 458.482C717.35 424.875 714.579 397.165 697.64 370.496C691.254 360.433 682.66 358.037 679.128 345.942C674.19 329.045 688.327 311.741 676.826 296.438C666.534 282.739 645.022 276.218 631.823 287.156C623.489 294.063 616.592 310.45 614.321 321.034C613.3 299.522 601.935 295.271 590.83 296.407C579.246 297.584 569.245 305.053 564.359 315.627C558.525 328.253 551.327 340.337 556.754 352.755C552.702 345.557 541.024 346.557 535.596 352.786C521.731 368.715 527.002 410.562 536.492 427.969C548.504 449.971 555.775 461.774 576.006 474.775C589.361 483.359 608.79 491.714 625.197 490.714L644.584 516.768C619.176 521.612 592.694 518.33 569.016 507.048C522.408 484.859 394.387 435.011 352.915 422.115L152.681 365.298C152.681 365.298 172.776 437.355 102.104 451.909C83.0299 455.836 217.947 496.485 317.579 540.592C400.107 577.137 544.774 646.351 580.631 662.112C586.288 664.592 591.153 668.582 594.716 673.624C682.92 798.31 759.114 857.607 785.939 862.076C801.002 864.586 852.736 838.866 981.037 827.104L961.244 867.42C961.244 867.42 1210.88 842.293 1261.87 843.71C1322.81 845.398 1507.18 1012.13 1562.42 1048.95C1594.93 1070.63 1667.77 1134.93 1701.24 1152.15C1715.25 1159.36 1732.35 1151.93 1736.63 1136.77C1758.72 1058.55 1818.98 868.149 1791.24 861.763L1791.25 861.753Z" fill="#F2A91F"/>
</mask>
<g mask="url(#mask0_309_95)">
<path opacity="0.6" d="M535.617 352.788C535.617 352.788 525.794 382.28 534.461 410.345C543.128 438.409 569.797 469.933 597.507 480.319C625.218 490.705 633.187 487.601 650.168 483.1C667.148 478.6 648.084 489.674 649.47 497.643C650.855 505.612 664.711 514.967 663.325 518.426C661.94 521.885 630.416 534.011 585.382 513.228C540.347 492.445 533.419 483.09 521.637 465.422C509.855 447.754 499.114 425.585 503.625 396.479C508.136 367.373 512.636 359.757 516.095 355.945C519.553 352.132 535.617 352.778 535.617 352.778" fill="#CC8F3F"/>
<path opacity="0.6" d="M621.759 302.951C621.759 302.951 618.29 282.855 619.676 280.084C621.061 277.313 665.409 263.458 667.482 262.76C669.555 262.062 715.287 263.458 715.287 263.458C715.287 263.458 738.154 346.6 738.841 357.684C739.529 368.768 731.216 424.2 731.216 424.2L726.611 483.892C726.611 483.892 692.004 467.984 698.661 460.921C709.745 449.139 706.287 433.898 707.672 419.355C709.297 402.323 697.974 377.092 683.42 364.622C668.867 352.152 672.565 336.099 673.951 320.16C675.336 304.221 671.753 293.137 652.814 288.054C635.302 283.355 619.613 327.077 611.592 333.317C610.55 334.13 614.134 299.481 589.882 302.951C570.485 305.722 552.316 332.817 548.316 339.672C534.305 363.622 549.014 281.47 566.328 273.855C577.235 269.052 621.759 302.951 621.759 302.951Z" fill="#CC8F3F"/>
<path opacity="0.6" d="M334.227 539.906C334.227 539.906 575.037 631.476 600.976 650.758C627.999 670.854 698.672 767.851 698.672 767.851L652.939 768.549C652.939 768.549 598.893 713.815 587.809 698.575C576.725 683.334 573.953 667.395 512.292 639.685C450.631 611.974 374.417 602.963 330.768 575.253C287.119 547.542 253.168 519.134 253.168 516.363C253.168 513.592 334.227 539.917 334.227 539.917V539.906Z" fill="#CC8F3F"/>
<path opacity="0.6" d="M1006.29 370.152C1006.29 370.152 912.063 508.028 909.98 532.967C907.896 557.907 959.869 582.856 959.869 582.856C959.869 582.856 944.628 516.341 964.025 486.547C983.423 456.753 1006.29 370.152 1006.29 370.152Z" fill="#CC8F3F"/>
<path opacity="0.6" d="M1107.83 702.169C1107.83 702.169 1127.23 722.827 1168.42 699.95C1224.54 668.77 1295.21 663.926 1315.3 665.999C1335.4 668.072 1393.59 695.095 1442.09 739.443C1490.6 783.79 1672.81 982.628 1690.82 987.483C1708.83 992.337 1782.97 856.535 1796.83 873.859C1810.69 891.184 1824.54 831.596 1815.54 829.512C1806.54 827.429 1767.73 848.222 1745.57 863.463C1723.4 878.703 1695.68 902.257 1687.36 896.715C1679.05 891.173 1651.34 876.62 1613.92 857.222C1576.5 837.825 1563.34 796.947 1532.86 775.466C1502.38 753.985 1480.2 731.817 1462.89 715.878C1445.57 699.939 1435.86 676.386 1423.39 670.145C1410.92 663.905 1379.75 643.82 1353.42 638.966C1327.1 634.111 1342.34 627.184 1309.07 629.267C1275.81 631.351 1268.89 633.424 1237.71 650.748C1206.53 668.072 1148.33 686.772 1142.1 688.157C1135.87 689.543 1107.84 702.158 1107.84 702.158" fill="#CC8F3F"/>
</g>
<path d="M607.071 751.735C609.602 760.559 617.655 766.622 626.833 766.549C727.059 765.705 1282.88 761.424 1305.02 769.726C1329.36 778.852 1238.1 1083.06 1192.46 1086.11C1151.13 1088.86 754.238 1084.13 679.722 1083.21C672.513 1083.12 666.138 1078.51 663.794 1071.69L561.223 772.768L550.233 734.286C547.639 725.202 540.336 718.243 531.138 716.087C485.53 705.378 350.551 672.594 346.759 658.697C342.196 641.966 340.675 613.068 349.801 613.068C358.926 613.068 526.835 661.166 571.87 676.948C595.914 685.376 600.112 727.556 607.06 751.746L607.071 751.735Z" fill="#117AF6"/>
<mask id="mask1_309_95" style="mask-type:alpha" maskUnits="userSpaceOnUse" x="343" y="613" width="967" height="474">
<path d="M607.071 751.735C609.602 760.559 617.655 766.622 626.833 766.549C727.059 765.705 1282.88 761.424 1305.02 769.726C1329.36 778.852 1238.1 1083.06 1192.46 1086.11C1151.13 1088.86 754.238 1084.13 679.722 1083.21C672.513 1083.12 666.138 1078.51 663.794 1071.69L561.223 772.768L550.233 734.286C547.639 725.202 540.336 718.243 531.138 716.087C485.53 705.378 350.551 672.594 346.759 658.697C342.196 641.966 340.675 613.068 349.801 613.068C358.926 613.068 526.835 661.166 571.87 676.948C595.914 685.376 600.112 727.556 607.06 751.746L607.071 751.735Z" fill="#117AF6"/>
</mask>
<g mask="url(#mask1_309_95)">
<path opacity="0.4" d="M561.223 772.768C561.223 772.768 664.023 1053.3 700.047 1060.23C738.748 1067.67 964.015 1076.44 1171.44 1060.85C1176.86 1060.45 1181.84 1057.74 1185.2 1053.45C1200.71 1033.55 1245.16 967.044 1284.33 816.792C1284.64 815.573 1284.84 814.323 1284.93 813.073L1287.23 775.164C1287.46 771.299 1288.85 767.591 1291.22 764.528C1300.19 752.923 1318.31 755.162 1324.18 768.611L1341.67 808.688C1343.44 812.74 1343.76 817.282 1342.59 821.553L1291.01 1008.01C1290.58 1009.56 1289.96 1011.05 1289.15 1012.45C1279.59 1029.12 1216.4 1138.68 1209.99 1132.29C1203.06 1125.36 1071.42 1097.65 1067.26 1097.65C1063.11 1097.65 818.608 1117.69 809.909 1110.44C801.211 1103.19 648.782 1115.66 634.927 1107.35C621.072 1099.03 543.472 986.795 532.388 967.387C524.064 952.824 521.21 839.846 520.304 784.436C520.074 770.268 534.68 760.694 547.576 766.559L561.223 772.758" fill="#0757B5"/>
</g>
<path d="M1157.41 1108.98H700.849C697.345 1108.98 694.505 1111.82 694.505 1115.32V1129.19C694.505 1132.69 697.345 1135.53 700.849 1135.53H1157.41C1160.91 1135.53 1163.75 1132.69 1163.75 1129.19V1115.32C1163.75 1111.82 1160.91 1108.98 1157.41 1108.98Z" fill="#117AF6"/>
<path d="M789.481 1248.1C819.721 1248.1 844.235 1223.58 844.235 1193.34C844.235 1163.1 819.721 1138.59 789.481 1138.59C759.241 1138.59 734.726 1163.1 734.726 1193.34C734.726 1223.58 759.241 1248.1 789.481 1248.1Z" fill="#0757B5"/>
<path d="M1078.7 1248.1C1108.94 1248.1 1133.46 1223.58 1133.46 1193.34C1133.46 1163.1 1108.94 1138.59 1078.7 1138.59C1048.46 1138.59 1023.95 1163.1 1023.95 1193.34C1023.95 1223.58 1048.46 1248.1 1078.7 1248.1Z" fill="#0757B5"/>
<path d="M789.877 1208.21C798.909 1208.21 806.232 1200.89 806.232 1191.85C806.232 1182.82 798.909 1175.5 789.877 1175.5C780.844 1175.5 773.521 1182.82 773.521 1191.85C773.521 1200.89 780.844 1208.21 789.877 1208.21Z" fill="#117AF6"/>
<path d="M1078.46 1208.21C1087.49 1208.21 1094.82 1200.89 1094.82 1191.85C1094.82 1182.82 1087.49 1175.5 1078.46 1175.5C1069.43 1175.5 1062.11 1182.82 1062.11 1191.85C1062.11 1200.89 1069.43 1208.21 1078.46 1208.21Z" fill="#117AF6"/>
<path d="M47.5376 487.223C47.5376 487.223 83.5612 470.639 85.3218 452.158" stroke="#5995EC" stroke-width="5.20874" stroke-linecap="round" stroke-linejoin="round"/>
<path d="M159.588 502.913C159.588 502.913 93.8954 484.578 40.0579 487.047C32.974 487.37 26.8589 492.089 24.6504 498.819C15.9726 525.227 -4.28934 594.837 1.65904 653.164C2.91955 665.54 10.3889 676.447 21.4106 682.218C40.1933 692.053 74.0188 705.418 119.095 705.418C119.095 705.418 80.1443 647.393 78.5296 547.208C78.3733 537.655 84.3842 529.082 93.4162 525.935L159.598 502.913H159.588Z" fill="#7EB7FA"/>
<mask id="mask2_309_95" style="mask-type:alpha" maskUnits="userSpaceOnUse" x="0" y="486" width="160" height="220">
<path d="M159.588 502.913C159.588 502.913 93.8954 484.578 40.0579 487.047C32.974 487.37 26.8589 492.089 24.6504 498.819C15.9726 525.227 -4.28934 594.837 1.65904 653.164C2.91955 665.54 10.3889 676.447 21.4106 682.218C40.1933 692.053 74.0188 705.418 119.095 705.418C119.095 705.418 80.1443 647.393 78.5296 547.208C78.3733 537.655 84.3842 529.082 93.4162 525.935L159.598 502.913H159.588Z" fill="#7EB7FA"/>
</mask>
<g mask="url(#mask2_309_95)">
<path opacity="0.48" d="M152.004 490.715C152.004 490.715 66.7787 497.986 59.5073 521.894C52.2359 545.802 54.309 684.022 107.313 720.399C160.317 756.777 169.672 729.754 140.566 668.437C111.47 607.12 90.6764 562.429 115.626 544.761C140.576 527.093 153.64 504.737 159.578 502.924C165.516 501.111 152.004 490.715 152.004 490.715Z" fill="#007CFF"/>
</g>
<path d="M82.6341 525.926C105.334 514.654 160.255 492.944 229.979 503.674C240.178 505.247 248.793 512.071 252.522 521.686C261.169 543.948 274.816 591.525 274.201 669.073C274.118 680.146 267.003 689.949 256.502 693.481C227.052 703.388 165.203 719.962 111.813 706.451C111.813 706.451 72.7479 645.404 71.2999 544.448C71.1853 536.614 75.6127 529.406 82.6341 525.926Z" fill="#5995EC"/>
<path d="M85.3947 446.732C85.3947 446.732 79.2276 470.505 91.5619 519.811" stroke="#5995EC" stroke-width="5.20874" stroke-linecap="round" stroke-linejoin="round"/>
<path d="M145.264 361.33C145.264 361.33 192.372 378.508 209.102 500.893" stroke="#5995EC" stroke-width="5.20874" stroke-linecap="round" stroke-linejoin="round"/>
<path d="M139.659 371.895C139.659 371.895 184.007 369.249 172.558 500.436" stroke="#5995EC" stroke-width="5.20874" stroke-linecap="round" stroke-linejoin="round"/>
<path d="M1047.17 97.8708C1047.17 97.8708 1082.34 35.7826 1134.29 45.1792C1186.25 54.5758 1189.66 4.2906 1210.1 7.05123C1230.54 9.81186 1232.24 14.2393 1231.82 22.5212C1231.39 30.8135 1201.58 77.7755 1179.85 84.4114C1158.13 91.0473 1142.77 135.978 1142.77 135.978" fill="#F2A91F"/>
<path d="M1047.17 97.8708C1047.17 97.8708 1082.34 35.7826 1134.29 45.1792C1186.25 54.5758 1189.66 4.2906 1210.1 7.05123C1230.54 9.81186 1232.24 14.2393 1231.82 22.5212C1231.39 30.8135 1201.58 77.7755 1179.85 84.4114C1158.13 91.0473 1142.77 135.978 1142.77 135.978" stroke="#9D6434" stroke-width="3.12524" stroke-linecap="round" stroke-linejoin="round"/>
<path d="M1098.51 49.597C1098.51 49.597 1129.17 5.94773 1143.65 9.81262C1158.13 13.6775 1165.37 20.3134 1164.09 25.8347C1162.81 31.356 1149.19 46.2842 1149.19 46.2842C1149.19 46.2842 1144.07 47.9406 1134.28 45.18C1124.49 42.4193 1107.44 45.18 1098.5 49.597H1098.51Z" fill="#E7AB43" stroke="#9D6434" stroke-width="3.12524" stroke-miterlimit="10"/>
<path d="M1149.2 46.2745C1149.2 46.2745 1163.68 -4.01065 1173.9 2.07315C1184.12 8.15696 1195.62 13.1261 1195.62 13.1261C1195.62 13.1261 1175.18 46.8371 1149.2 46.2849V46.2745Z" fill="#E7AB43" stroke="#9D6434" stroke-width="3.12524" stroke-miterlimit="10"/>
<path d="M1201.87 69.5156C1201.87 69.5156 1207.43 145.594 1200.77 186.171" stroke="#5995EC" stroke-width="5.20874" stroke-linecap="round" stroke-linejoin="round"/>
<path d="M1204.79 66.2656C1204.79 66.2656 1235.3 114.707 1243.17 186.765" stroke="#5995EC" stroke-width="5.20874" stroke-linecap="round" stroke-linejoin="round"/>
<path d="M1165.04 185.326C1165.04 185.326 1114.34 160.97 1069.91 174.554C1025.48 188.149 1027.57 328.753 1043.25 342.859C1058.93 356.974 1115.38 370.559 1132.63 366.902C1132.63 366.902 1089.25 309.929 1112.77 208.525C1112.77 208.525 1120.61 193.68 1165.03 185.315L1165.04 185.326Z" fill="#5995EC"/>
<mask id="mask3_309_95" style="mask-type:alpha" maskUnits="userSpaceOnUse" x="1033" y="170" width="133" height="198">
<path d="M1165.04 185.326C1165.04 185.326 1114.34 160.97 1069.91 174.554C1025.48 188.149 1027.57 328.753 1043.25 342.859C1058.93 356.974 1115.38 370.559 1132.63 366.902C1132.63 366.902 1089.25 309.929 1112.77 208.525C1112.77 208.525 1120.61 193.68 1165.03 185.315L1165.04 185.326Z" fill="#5995EC"/>
</mask>
<g mask="url(#mask3_309_95)">
<path opacity="0.48" d="M1153.86 171.658C1150.75 171.658 1091.5 182.055 1085.27 204.911C1079.04 227.767 1069.69 354.568 1099.83 381.591C1129.97 408.614 1162.19 376.393 1168.42 349.37C1174.65 322.347 1126.85 250.644 1139.32 223.621C1151.79 196.598 1172.57 184.128 1172.57 184.128L1153.86 171.658Z" fill="#007CFF"/>
</g>
<path d="M45.3361 1253.56H1502.35" stroke="#335CDF" stroke-width="9.54608" stroke-linecap="round" stroke-linejoin="round"/>
<path d="M1560.62 1255.84H1797.4" stroke="#335CDF" stroke-width="9.54608" stroke-linecap="round" stroke-linejoin="round"/>
<path d="M57.1738 354.964C75.6231 329.764 91.6764 332.129 104.417 328.337C112.532 325.92 121.668 327.191 129.273 330.868C136.878 334.546 142.93 341.796 143.753 350.078C144.42 356.777 141.764 363.361 138.576 369.319C137.815 370.747 136.836 372.299 135.242 372.684C134.117 372.955 132.95 372.57 131.857 372.184C123.919 369.413 115.98 366.642 108.042 363.871C114.553 372.028 126.387 373.153 136.617 375.747C140.389 376.705 149.837 383.258 150.639 386.987C151.171 389.456 149.973 391.925 148.806 394.165C146.212 399.165 143.524 404.28 139.295 408.052C135.065 411.833 128.898 414.042 123.512 412.146C120.345 411.031 112.647 403.947 109.98 401.916C102.813 396.436 93.9891 393.071 84.9363 392.363C86.3114 395.519 90.0201 396.905 93.3432 397.967C99.1874 399.822 105.032 401.686 110.876 403.541C114.032 404.541 122.366 413.114 123.669 416.115C126.252 422.073 118.387 426.761 114.095 431.668C112.074 433.981 110.667 436.866 108.178 438.689C102.865 442.585 95.2184 440.033 89.6555 436.491C84.0925 432.949 73.7271 421.073 67.0912 421.084C66.6641 428.314 81.8528 432.668 86.3323 438.439C91.3952 444.961 85.228 454.149 78.665 459.233C76.519 460.889 74.0813 462.525 71.3624 462.472C67.5287 462.41 64.6743 459.16 62.1221 456.357C57.5071 451.263 48.6418 443.252 44.4749 437.804C28.8799 417.427 27.2339 397.019 45.9333 373.861L57.1633 354.964H57.1738Z" fill="#F2A91F"/>
<path d="M59.4239 356.277C65.2994 348.307 72.4875 341.14 81.5923 336.983C87.249 334.4 94.062 333.316 100.406 331.993C104.407 331.16 108.209 329.816 112.334 329.712C117.939 329.566 123.679 330.879 128.669 333.462C133.003 335.712 136.701 339.119 139.024 343.432C141.545 348.099 141.753 353.318 140.368 358.381C139.482 361.6 138.118 364.642 136.555 367.59C136.169 368.319 135.503 370.017 134.555 370.173C133.919 370.278 133.128 369.871 132.555 369.673C131.742 369.392 130.94 369.111 130.127 368.83C123.002 366.34 115.876 363.85 108.751 361.36C107.678 360.985 106.365 361.61 105.813 362.558C105.188 363.621 105.48 364.808 106.219 365.715C112.136 372.976 121.783 375.07 130.471 376.987C132.461 377.424 134.544 377.768 136.482 378.414C136.638 378.466 137.336 378.758 136.888 378.56C137.201 378.695 137.503 378.841 137.805 378.997C138.628 379.414 139.441 379.872 140.222 380.362C141.743 381.31 143.212 382.341 144.556 383.487C145.212 384.05 145.858 384.633 146.462 385.268C146.722 385.539 146.962 385.81 147.212 386.091C147.285 386.164 147.618 386.623 147.368 386.269C147.483 386.425 147.597 386.591 147.702 386.758C147.806 386.925 148.202 387.769 147.972 387.154C148.066 387.404 148.129 387.644 148.16 387.904C148.295 389.144 147.733 390.467 147.212 391.561C146.097 393.884 144.858 396.176 143.555 398.394C141.087 402.603 138.045 406.572 133.586 408.781C131.7 409.718 129.575 410.26 127.46 410.229C126.315 410.208 125.304 409.968 124.21 409.635C123.877 409.531 124.585 409.875 123.971 409.51C123.627 409.312 123.283 409.124 122.95 408.916C119.939 407.02 117.293 404.624 114.564 402.322C110.865 399.197 106.98 396.436 102.563 394.394C96.9789 391.811 91.0722 390.258 84.9363 389.748C82.7903 389.571 81.9257 392.05 82.6862 393.665C84.6759 397.915 89.4888 399.457 93.6245 400.78C99.0624 402.509 104.469 404.364 109.938 405.968C110.751 406.208 109.657 405.739 110.324 406.114C110.563 406.249 110.803 406.385 111.032 406.53C111.647 406.926 112.116 407.281 112.449 407.562C113.814 408.687 115.105 409.885 116.345 411.145C117.585 412.406 118.689 413.604 119.762 414.917C119.877 415.052 119.991 415.198 120.106 415.344C119.877 415.052 120.137 415.385 120.168 415.427C120.356 415.677 120.533 415.927 120.7 416.177C120.866 416.427 121.012 416.677 121.168 416.927C121.231 417.021 121.272 417.125 121.325 417.219C121.325 417.24 121.283 417.031 121.387 417.427C121.762 418.781 121.46 419.802 120.543 421.209C119.502 422.803 118.043 424.136 116.668 425.449C115.21 426.834 113.699 428.178 112.355 429.689C110.782 431.46 109.605 433.553 108.011 435.304C105.042 438.554 100.865 438.45 96.9477 437.168C94.8329 436.47 92.8224 435.449 90.9576 434.241C89.6138 433.376 88.9471 432.793 87.6866 431.72C84.3009 428.845 81.0402 425.824 77.4983 423.146C74.5084 420.886 70.9769 418.542 67.0912 418.469C65.6432 418.438 64.5389 419.688 64.4868 421.073C64.2785 426.73 70.0185 430.366 74.2272 432.97C76.6857 434.491 79.2276 435.897 81.5819 437.585C83.2591 438.783 85.1551 440.471 85.5301 442.887C85.9885 445.867 84.353 448.971 82.6757 451.378C80.6964 454.211 77.9983 456.774 75.0502 458.587C73.6855 459.43 72.1541 460.108 70.5186 459.743C68.883 459.378 67.5912 458.243 66.4453 457.128C64.0493 454.795 61.872 452.242 59.5073 449.878C54.5902 444.95 49.2461 440.033 45.277 434.512C41.0058 428.595 37.4847 422.073 35.87 414.917C34.3907 408.374 34.7866 401.624 36.7763 395.238C37.9119 391.613 39.5161 388.175 41.4225 384.893C42.4851 383.07 43.631 381.289 44.8499 379.57C45.9125 378.06 47.1834 376.664 48.2043 375.132C49.9649 372.507 51.4546 369.653 53.0693 366.944L59.0385 356.912L59.4135 356.277C61.1324 353.391 56.6321 350.766 54.9132 353.651C51.2462 359.819 47.5376 365.954 43.9227 372.142C43.5373 372.799 43.4227 372.851 42.8185 373.632C41.2871 375.611 39.8183 377.632 38.4744 379.737C36.193 383.299 34.2449 387.071 32.7344 391.029C30.0154 398.134 29.1508 405.728 30.255 413.25C31.3593 420.771 34.6512 427.97 38.8078 434.335C42.9643 440.7 48.3085 446.117 53.7256 451.513C56.2258 454.003 58.6947 456.503 61.0699 459.107C63.7993 462.087 67.0704 465.025 71.352 465.108C75.6335 465.191 79.5505 462.139 82.5611 459.358C85.3843 456.743 87.8741 453.597 89.395 450.044C90.916 446.492 91.3327 442.596 89.6763 439.002C88.4054 436.241 85.9364 434.303 83.4883 432.637C81.0402 430.97 78.415 429.532 75.9148 427.928C74.7793 427.209 73.498 426.345 72.6541 425.647C72.1645 425.24 71.6957 424.824 71.2582 424.365C70.6331 423.719 70.7061 423.834 70.3415 423.261C70.1956 423.032 70.0706 422.803 69.9352 422.563C69.7581 422.105 69.8831 422.459 69.9352 422.563C69.8935 422.459 69.8518 422.355 69.831 422.25C69.7685 422 69.6956 421.761 69.6539 421.511C69.7372 422.094 69.6852 421.282 69.6956 421.105L67.0912 423.709C67.2058 423.709 67.4141 423.688 67.5392 423.73C68.2371 423.917 67.2058 423.646 67.6433 423.751C68.0079 423.823 68.3621 423.917 68.7163 424.021C69.4664 424.261 69.7477 424.396 70.6123 424.865C72.2166 425.73 73.7271 426.782 75.1647 427.897C78.3108 430.334 81.2173 433.074 84.2592 435.637C90.593 440.981 100.813 446.367 108.855 441.408C111.157 439.981 112.751 437.845 114.314 435.679C115.585 433.897 117.012 432.345 118.606 430.834C121.616 427.97 125.387 424.928 126.502 420.729C127.513 416.896 125.617 413.864 123.293 411.052C120.97 408.239 118.272 405.541 115.355 403.28C113.855 402.124 112.428 401.322 110.615 400.749C107.365 399.717 104.125 398.686 100.875 397.655C97.9061 396.707 94.885 395.863 91.9681 394.769C89.9992 394.03 88.1241 393.04 87.2074 391.071L84.9572 394.988C90.2597 395.425 95.5413 396.821 100.354 399.113C102.834 400.29 105.209 401.676 107.438 403.27C107.74 403.489 108.032 403.707 108.334 403.926C108.438 404.009 109.032 404.478 108.438 403.999C108.657 404.176 108.865 404.343 109.084 404.52C109.772 405.082 110.449 405.655 111.126 406.228C114.147 408.781 117.168 411.51 120.554 413.573C124.523 416 129.648 415.917 133.909 414.312C139.138 412.333 143.087 408.551 146.212 403.989C147.733 401.77 149.025 399.415 150.275 397.04C151.629 394.467 153.16 391.811 153.369 388.852C153.66 384.685 150.504 381.622 147.504 379.205C144.503 376.789 141.284 374.476 137.68 373.351C132.742 371.809 127.523 371.194 122.564 369.684C117.606 368.173 113.157 366.038 109.897 362.037L107.365 366.392C114.251 368.798 121.137 371.205 128.013 373.601C131.096 374.674 134.649 376.455 137.722 374.403C140.284 372.684 141.607 369.319 142.837 366.611C145.608 360.496 147.379 353.839 145.92 347.13C144.733 341.703 141.472 336.723 137.305 333.108C132.721 329.129 127.002 326.566 121.075 325.347C115.147 324.128 108.928 324.42 102.875 326.076C96.208 327.91 89.2908 328.504 82.7695 330.92C71.1124 335.233 62.195 343.776 54.9236 353.651C54.0902 354.787 54.7361 356.558 55.8612 357.214C57.1842 357.985 58.5905 357.412 59.4239 356.277Z" fill="#9D6434"/>
<path d="M1105.34 209.016C1109.05 190.493 1161.04 169.94 1254.01 186.42C1261.61 187.764 1268.06 192.806 1271.21 199.859C1280.47 220.641 1297.94 269.802 1296.93 343.297C1296.7 359.569 1286.78 374.205 1271.61 380.112C1248.2 389.227 1207.82 398.801 1150.06 391.217C1145.01 390.55 1140.27 388.373 1136.48 384.967C1120.26 370.372 1082.56 322.847 1105.32 209.016H1105.34Z" fill="#7EB7FA"/>
<path d="M1149.52 43.493C1143.52 48.6913 1139.79 55.8273 1137.02 63.1508C1133.92 71.3493 1131.67 79.9333 1129.62 88.4444C1125.29 106.456 1122.6 124.874 1121.58 143.376C1121.01 153.824 1120.98 164.304 1121.49 174.764C1121.65 178.097 1126.86 178.118 1126.69 174.764C1125.82 156.648 1126.55 138.469 1128.92 120.489C1131.3 102.508 1135.05 85.3087 1140.65 68.4741C1143.28 60.5776 1146.8 52.7437 1153.21 47.1808C1154.27 46.2536 1154.15 44.441 1153.21 43.493C1152.15 42.4408 1150.59 42.5658 1149.52 43.493Z" fill="#5995EC"/>
<path d="M1166.34 40.4609C1162.18 49.7116 1158.06 59.004 1155.02 68.6923C1152.19 77.7138 1150.14 86.9853 1148.86 96.3611C1146.29 115.3 1146.83 134.572 1150.53 153.334C1152.59 163.814 1155.67 174.086 1159.7 183.982C1160.23 185.285 1161.43 186.201 1162.91 185.806C1164.13 185.462 1165.26 183.91 1164.73 182.597C1157.72 165.419 1153.64 147.105 1152.69 128.582C1151.74 110.133 1153.8 91.569 1158.92 73.8072C1161.98 63.2022 1166.32 53.1285 1170.84 43.0861C1171.42 41.8048 1171.21 40.2838 1169.91 39.5233C1168.79 38.867 1166.93 39.1691 1166.34 40.4609Z" fill="#5995EC"/>
<path d="M112.511 576.993C121.898 576.993 121.908 562.408 112.511 562.408C103.115 562.408 103.115 576.993 112.511 576.993Z" fill="#7EB7FA"/>
<path d="M162.401 543.729C171.787 543.729 171.797 529.145 162.401 529.145C153.004 529.145 153.004 543.729 162.401 543.729Z" fill="#7EB7FA"/>
<path d="M221.989 560.366C231.375 560.366 231.385 545.781 221.989 545.781C212.592 545.781 212.592 560.366 221.989 560.366Z" fill="#7EB7FA"/>
<path d="M172.099 607.475C181.486 607.475 181.496 592.891 172.099 592.891C162.703 592.891 162.703 607.475 172.099 607.475Z" fill="#7EB7FA"/>
<path d="M130.523 637.956C139.909 637.956 139.92 623.371 130.523 623.371C121.127 623.371 121.127 637.956 130.523 637.956Z" fill="#7EB7FA"/>
<path d="M224.76 631.028C234.146 631.028 234.156 616.443 224.76 616.443C215.363 616.443 215.363 631.028 224.76 631.028Z" fill="#7EB7FA"/>
<path d="M180.413 671.219C189.799 671.219 189.809 656.635 180.413 656.635C171.016 656.635 171.016 671.219 180.413 671.219Z" fill="#7EB7FA"/>
<path d="M141.618 694.772C151.004 694.772 151.014 680.188 141.618 680.188C132.221 680.188 132.221 694.772 141.618 694.772Z" fill="#7EB7FA"/>
<path d="M238.615 673.991C248.001 673.991 248.011 659.406 238.615 659.406C229.218 659.406 229.218 673.991 238.615 673.991Z" fill="#7EB7FA"/>
<path d="M1146.25 234.727C1155.63 234.727 1155.64 220.143 1146.25 220.143C1136.85 220.143 1136.85 234.727 1146.25 234.727Z" fill="#5995EC"/>
<path d="M1196.13 215.319C1205.51 215.319 1205.52 200.734 1196.13 200.734C1186.73 200.734 1186.73 215.319 1196.13 215.319Z" fill="#5995EC"/>
<path d="M1241.86 236.112C1251.25 236.112 1251.26 221.527 1241.86 221.527C1232.46 221.527 1232.46 236.112 1241.86 236.112Z" fill="#5995EC"/>
<path d="M1190.58 269.366C1199.97 269.366 1199.98 254.781 1190.58 254.781C1181.19 254.781 1181.19 269.366 1190.58 269.366Z" fill="#5995EC"/>
<path d="M1147.63 299.846C1157.02 299.846 1157.03 285.262 1147.63 285.262C1138.24 285.262 1138.24 299.846 1147.63 299.846Z" fill="#5995EC"/>
<path d="M1247.4 290.147C1256.79 290.147 1256.8 275.562 1247.4 275.562C1238 275.562 1238 290.147 1247.4 290.147Z" fill="#5995EC"/>
<path d="M1203.05 324.795C1212.44 324.795 1212.45 310.211 1203.05 310.211C1193.66 310.211 1193.66 324.795 1203.05 324.795Z" fill="#5995EC"/>
<path d="M1160.1 366.362C1169.49 366.362 1169.5 351.777 1160.1 351.777C1150.71 351.777 1150.71 366.362 1160.1 366.362Z" fill="#5995EC"/>
<path d="M1255.71 359.434C1265.1 359.434 1265.11 344.85 1255.71 344.85C1246.32 344.85 1246.32 359.434 1255.71 359.434Z" fill="#5995EC"/>
<path d="M1211.37 377.446C1220.75 377.446 1220.76 362.861 1211.37 362.861C1201.97 362.861 1201.97 377.446 1211.37 377.446Z" fill="#5995EC"/>
<path d="M658.325 772.3C664.481 819.449 675.628 865.682 690.108 910.936C703.328 952.241 718.871 993.432 742.112 1030.25C754.801 1050.35 769.656 1071.23 789.762 1084.49C797.617 1089.67 804.93 1077.05 797.127 1071.9C780.407 1060.87 767.948 1043.26 757.166 1026.7C746.384 1010.15 736.372 990.983 728.101 972.065C710.652 932.166 697.671 889.861 687.285 847.618C681.181 822.783 676.222 797.645 672.909 772.279C672.399 768.341 669.93 765.028 665.617 764.987C662.075 764.945 657.814 768.372 658.325 772.279V772.3Z" fill="#5995EC"/>
<path d="M923.043 768.686C916.668 811.731 913.782 855.151 914.824 898.665C915.751 937.522 919.626 976.202 924.335 1014.77C926.991 1036.52 929.856 1058.25 932.502 1080C932.981 1083.94 935.513 1087.25 939.794 1087.29C943.368 1087.34 947.566 1083.91 947.087 1080C937.68 1002.69 926.46 925.625 929.908 847.505C931.012 822.419 933.44 797.407 937.117 772.561C937.7 768.634 936.138 764.769 932.023 763.592C928.596 762.602 923.626 764.8 923.054 768.686H923.043Z" fill="#5995EC"/>
<path d="M1147.53 770.424C1144.82 814.199 1143.69 858.421 1137.78 901.914C1132.49 940.896 1123.15 979.566 1108.13 1015.99C1099.48 1036.96 1088.72 1057.05 1076.2 1075.95C1071 1083.79 1083.63 1091.11 1088.8 1083.31C1134.72 1014 1152.12 931.947 1157.19 850.066C1158.83 823.522 1160.47 796.968 1162.11 770.424C1162.7 761.049 1148.1 761.09 1147.53 770.424Z" fill="#5995EC"/>
<path d="M591.976 387.874C582.194 392.53 575.912 403.698 577.047 414.48C577.193 415.876 578.141 417.084 579.652 417.084C580.944 417.084 582.402 415.886 582.256 414.48C581.287 405.344 586.288 396.333 594.601 392.374C595.872 391.77 596.205 389.947 595.538 388.811C594.778 387.509 593.247 387.269 591.976 387.874Z" fill="#9D6434"/>
<path d="M641.177 363.018C648.522 360.122 656.512 359.841 664.013 362.299C667.2 363.341 668.575 358.32 665.398 357.278C657.116 354.559 647.907 354.788 639.792 357.997C638.49 358.518 637.573 359.737 637.969 361.205C638.313 362.456 639.854 363.539 641.177 363.028V363.018Z" fill="#9D6434"/>
<path d="M604.623 419.877C604.477 419.461 604.341 419.033 604.248 418.596C604.195 418.377 604.164 418.158 604.123 417.94C604.248 418.544 604.123 417.846 604.112 417.752C604.081 417.304 604.07 416.856 604.091 416.419C604.091 416.2 604.123 415.971 604.143 415.752C604.195 415.189 604.039 416.169 604.175 415.564C604.279 415.127 604.362 414.689 604.487 414.262C604.55 414.054 604.633 413.845 604.706 413.627C604.862 413.158 604.602 413.793 604.748 413.533C604.956 413.137 605.143 412.741 605.373 412.356C605.487 412.168 605.633 411.991 605.737 411.804C605.841 411.658 605.821 411.679 605.664 411.887C605.737 411.804 605.8 411.71 605.873 411.627C606.133 411.324 606.404 411.033 606.706 410.762C606.862 410.616 607.029 410.47 607.196 410.335C607.644 409.949 606.904 410.512 607.362 410.21C607.727 409.97 608.092 409.731 608.477 409.522C608.675 409.418 608.862 409.324 609.06 409.231C609.696 408.928 608.571 409.387 609.248 409.158C609.665 409.012 610.071 408.876 610.498 408.772C610.706 408.72 610.925 408.689 611.144 408.637C611.696 408.512 610.706 408.658 611.321 408.606C611.717 408.574 612.123 408.543 612.519 408.553C612.738 408.553 612.957 408.553 613.175 408.574C613.873 408.626 612.925 408.512 613.457 408.595C614.8 408.803 616.321 408.251 616.665 406.772C616.946 405.522 616.29 403.793 614.842 403.563C610.227 402.845 605.279 404.293 602.185 407.939C599.091 411.585 597.987 416.742 599.591 421.273C600.049 422.555 601.393 423.544 602.8 423.096C604.06 422.69 605.102 421.263 604.623 419.888V419.877Z" fill="#9D6434"/>
<path d="M646.167 388.103C646.272 387.728 646.386 387.363 646.532 387.009C646.626 386.759 646.417 387.207 646.626 386.811C646.709 386.655 646.782 386.509 646.855 386.353C647.063 385.978 647.293 385.624 647.532 385.259C647.605 385.145 647.751 384.947 647.584 385.165C647.72 384.999 647.855 384.832 648.001 384.676C648.261 384.384 648.532 384.113 648.814 383.853C648.97 383.707 649.136 383.571 649.293 383.426C649.626 383.155 649.022 383.613 649.376 383.363C649.689 383.144 650.011 382.926 650.345 382.738C650.532 382.634 650.72 382.53 650.907 382.436C650.97 382.405 651.491 382.176 651.105 382.332C652.772 381.644 653.803 381.561 655.554 381.675C656.408 381.738 655.335 381.623 655.824 381.707C656.054 381.748 656.283 381.79 656.502 381.842C656.908 381.936 657.304 382.051 657.7 382.186C657.752 382.207 658.179 382.363 658.033 382.301C657.845 382.228 658.418 382.478 658.481 382.509C658.898 382.717 659.283 382.957 659.669 383.207C660.846 383.978 662.544 383.436 663.231 382.269C663.971 380.998 663.471 379.477 662.294 378.706C658.585 376.269 653.606 375.706 649.48 377.394C645.355 379.082 642.334 382.478 641.136 386.718C640.771 388.03 641.584 389.614 642.959 389.926C644.334 390.239 645.772 389.509 646.167 388.103Z" fill="#9D6434"/>
<path d="M636.917 443.754C648.386 436.347 659.856 428.929 671.336 421.523L667.513 419.97C670.065 428.429 673.534 439.826 666.815 447.368C663.888 450.66 659.669 451.744 655.397 451.754C651.126 451.765 646.574 451.025 642.428 449.733C638.74 448.587 634.604 446.587 633.198 442.712L631.375 445.92C635.948 444.201 640.344 442.087 644.501 439.514C647.345 437.753 644.73 433.242 641.875 435.013C638.104 437.347 634.146 439.337 630 440.899C628.76 441.368 627.666 442.681 628.176 444.108C631.729 453.911 644.094 456.369 653.303 456.911C658.773 457.234 664.356 456.265 668.721 452.754C672.794 449.483 674.972 444.347 675.649 439.274C676.586 432.232 674.576 425.263 672.555 418.585C672.086 417.043 670.18 416.095 668.732 417.033C657.262 424.44 645.792 431.857 634.312 439.264C631.51 441.076 634.114 445.587 636.938 443.764L636.917 443.754Z" fill="#9D6434"/>
<path d="M942.451 250.28C948.514 252.717 954.827 254.447 961.275 255.447C962.661 255.666 964.078 255.093 964.484 253.624C964.828 252.395 964.067 250.634 962.661 250.415C956.202 249.415 949.889 247.686 943.836 245.248C942.534 244.727 940.972 245.821 940.628 247.071C940.222 248.561 941.138 249.749 942.451 250.28Z" fill="#9D6434"/>
<g opacity="0.6">
<path d="M376.667 506.479C380.074 507.77 386.356 491.165 382.949 489.873C382.949 489.873 396.586 492.446 396.586 500.759C396.586 509.072 392.429 510.114 389.314 510.114C386.199 510.114 376.667 506.479 376.667 506.479Z" fill="#CC8F3F"/>
</g>
<path d="M382.084 492.56C382.157 492.591 381.366 492.227 381.647 492.383C381.741 492.435 381.887 492.56 381.491 492.258C381.095 491.956 381.324 492.143 381.418 492.247C381.324 492.143 380.98 491.622 381.189 491.997C381.189 491.997 380.98 491.289 381.074 491.747C381.095 491.841 381.126 491.956 381.147 492.049C381.282 492.518 381.126 491.695 381.116 491.789C381.116 492.06 381.147 492.331 381.147 492.612C381.147 492.904 381.116 493.185 381.095 493.477C381.053 494.029 381.126 493.3 381.116 493.383C381.084 493.57 381.053 493.758 381.022 493.935C380.897 494.654 380.72 495.373 380.522 496.081C380.313 496.841 380.063 497.592 379.793 498.331C379.657 498.696 379.522 499.05 379.376 499.415C379.157 499.967 379.543 499.05 379.355 499.477C379.261 499.675 379.178 499.873 379.084 500.071C378.772 500.748 378.428 501.415 378.053 502.071C377.886 502.363 377.709 502.644 377.532 502.925C377.449 503.061 377.355 503.186 377.272 503.311C377.219 503.384 377.167 503.446 377.115 503.519C376.928 503.811 377.251 503.321 377.292 503.29C377.063 503.457 376.886 503.78 376.688 503.977C376.594 504.071 376.49 504.165 376.386 504.259C376.011 504.634 376.782 504.03 376.542 504.134C376.459 504.175 376.282 504.259 376.219 504.321C376.188 504.342 376.949 504.082 376.49 504.186C376.074 504.28 377.251 504.123 376.844 504.134C376.844 504.134 377.636 504.311 377.178 504.155C375.886 503.707 374.271 504.665 373.969 505.978C373.636 507.426 374.407 508.707 375.792 509.186C379.345 510.405 382.001 505.905 383.262 503.342C384.876 500.06 386.335 496.216 386.356 492.508C386.366 490.31 385.574 488.435 383.46 487.559C382.199 487.039 380.543 488.122 380.251 489.383C379.907 490.904 380.72 492.029 382.074 492.591L382.084 492.56Z" fill="#9D6434"/>
<path d="M1006.22 624.954C1006.04 624.829 1005.87 624.694 1005.7 624.569C1005.59 624.496 1005.5 624.413 1005.4 624.34C1005.13 624.142 1005.96 624.777 1005.49 624.402C1005.04 624.048 1004.6 623.704 1004.15 623.35C1003.06 622.475 1001.98 621.579 1000.9 620.673C998.111 618.329 995.351 615.943 992.611 613.537C985.215 607.057 977.902 600.484 970.63 593.869C962.4 586.399 954.223 578.888 946.076 571.346C938.69 564.502 931.325 557.647 924.002 550.73C919.137 546.136 914.251 541.542 909.511 536.823C909.178 536.489 908.844 536.156 908.521 535.822C906.167 533.426 902.479 537.114 904.833 539.51C909.125 543.865 913.584 548.042 918.022 552.24C925.158 559.001 932.336 565.7 939.544 572.388C947.722 579.972 955.942 587.524 964.192 595.035C971.662 601.838 979.162 608.609 986.746 615.287C991.757 619.704 996.757 624.163 1002.04 628.257C1002.56 628.653 1003.07 629.059 1003.6 629.444C1004.74 630.278 1006.51 629.632 1007.16 628.507C1007.94 627.184 1007.36 625.788 1006.23 624.944L1006.22 624.954Z" fill="#9D6434"/>
<path d="M1427.75 714.201C1438.11 721.889 1415.8 738.901 1402.93 737.953C1392.77 737.213 1384.42 730.046 1376.18 724.035C1360.64 712.701 1342.84 704.471 1324.14 699.971C1318.14 698.523 1311.83 697.366 1306.83 693.752C1300.15 688.918 1296.99 680.459 1296.12 672.25C1295.78 668.989 1295.77 665.541 1297.3 662.645C1301.33 654.999 1312.4 655.874 1320.81 657.842C1320.81 657.842 1360.07 663.999 1427.76 714.191L1427.75 714.201Z" fill="#F1BA66"/>
</g>
<defs>
<clipPath id="clip0_309_95">
<rect width="1817.83" height="1297.58" fill="white" transform="translate(0.575615)"/>
</clipPath>
</defs>
</svg>
