<svg width="1440" height="413" viewBox="0 0 1440 413" fill="none" xmlns="http://www.w3.org/2000/svg">
<g clip-path="url(#clip0_40_122)">
<rect width="1440" height="413" fill="white" fill-opacity="0.9"/>
<path d="M466.864 -211.371C685.694 -217.964 808.038 -178.697 1026.87 -185.371C1159 -189.401 1241.08 -259.069 1364.37 -211.371C1470.67 -170.245 1577.87 -126.35 1577.87 -12.3711C1577.87 381.629 1516.93 106.129 1137.37 214.379C1034.18 243.806 834.432 167.379 749.432 214.379C664.432 261.379 631.865 173.379 486.865 196.379C341.865 219.379 297.409 167.879 219.865 167.879C98.8651 167.879 -61.155 235.098 -165.334 175.25C-269.512 115.402 -231.068 -86.5 -231.068 -86.5C-231.068 -86.5 -69.9518 -126.925 -18.1353 -164.371C136.098 -275.83 276.659 -205.641 466.864 -211.371Z" fill="#864BFA"/>
<path d="M424.197 184.421C428.828 181.591 436.898 175.112 439.388 171.27C442.343 167.153 433.54 165.86 432.465 165.596C431.392 165.332 379.595 156.08 370.677 154.895C361.76 153.71 338.362 167.762 333.115 172.705C328.838 176.734 332.883 177.649 333.691 177.985C334.499 178.322 378.257 188.278 393.684 190.75C405.367 192.622 415.106 189.977 424.197 184.421Z" fill="black" fill-opacity="0.1"/>
<path d="M393.832 168.248C393.705 168.086 388.085 168.687 385.291 169.007C384.517 170.074 382.955 172.3 382.891 172.673C382.812 173.139 383.89 176.346 386.646 178.156C389.402 179.967 393.122 175.101 394.457 174.144C395.792 173.187 393.99 168.452 393.832 168.248Z" fill="#2C2C2C"/>
<path d="M349.925 160.432C349.798 160.27 344.178 160.87 341.384 161.191C340.61 162.258 339.047 164.484 338.984 164.857C338.905 165.322 339.983 168.53 342.739 170.34C345.495 172.151 349.215 167.285 350.55 166.328C351.885 165.371 350.083 160.636 349.925 160.432Z" fill="#131313"/>
<path fill-rule="evenodd" clip-rule="evenodd" d="M386.879 171.926L391.34 168.282L391.341 168.283C391.369 168.26 391.397 168.238 391.425 168.215C394.094 166.088 399.207 167.853 402.845 172.159C406.482 176.464 407.268 181.679 404.599 183.807C404.566 183.833 404.532 183.859 404.498 183.884L400.19 187.408L395.934 182.457C394.968 181.744 394.033 180.874 393.179 179.863C392.391 178.931 391.737 177.956 391.223 176.979L386.879 171.926Z" fill="black"/>
<path d="M400.177 187.418C397.508 189.545 392.397 187.782 388.762 183.48C385.127 179.178 384.344 173.966 387.013 171.839C389.682 169.711 394.793 171.474 398.428 175.776C402.063 180.079 402.846 185.291 400.177 187.418Z" fill="black"/>
<g filter="url(#filter0_d_40_122)">
<path d="M398.361 185.523C396.359 187.119 392.526 185.797 389.8 182.57C387.073 179.343 386.486 175.434 388.488 173.838C390.49 172.243 394.323 173.565 397.049 176.792C399.776 180.018 400.363 183.928 398.361 185.523Z" fill="url(#paint0_linear_40_122)"/>
</g>
<g filter="url(#filter1_di_40_122)">
<path fill-rule="evenodd" clip-rule="evenodd" d="M392.209 174.418C392.95 174.609 393.729 174.976 394.484 175.498L393.766 178.042C393.547 177.899 393.323 177.79 393.106 177.718L392.209 174.418ZM394.22 181.816C394.513 181.839 394.779 181.78 394.989 181.629L397.778 184.301C397.7 184.385 397.615 184.464 397.523 184.537C396.89 185.042 396.037 185.195 395.098 185.044L394.22 181.816ZM394.775 184.981L393.9 181.76C393.645 181.694 393.379 181.575 393.119 181.407L392.414 183.904C393.2 184.438 394.01 184.805 394.775 184.981ZM392.779 177.637L391.883 174.344C390.889 174.154 389.983 174.297 389.318 174.826C389.133 174.974 388.974 175.146 388.842 175.337L391.656 178.032C391.707 177.958 391.769 177.891 391.84 177.834C392.085 177.639 392.415 177.579 392.779 177.637ZM390.408 182.083C390.951 182.725 391.547 183.276 392.161 183.726L392.866 181.229C392.655 181.066 392.451 180.872 392.264 180.65C392.245 180.628 392.227 180.607 392.21 180.585L390.149 181.763C390.232 181.87 390.319 181.977 390.408 182.083ZM394.018 178.222L394.736 175.679C395.331 176.12 395.907 176.658 396.433 177.281C396.541 177.409 396.645 177.538 396.745 177.668L394.661 178.858C394.641 178.834 394.622 178.81 394.601 178.786C394.419 178.571 394.222 178.382 394.018 178.222ZM389.976 181.535C389.303 180.623 388.83 179.667 388.569 178.758L391.593 179.498C391.691 179.781 391.84 180.074 392.038 180.357L389.976 181.535ZM394.832 179.087C395.069 179.427 395.236 179.781 395.326 180.116L398.339 180.852C398.102 179.893 397.622 178.871 396.916 177.897L394.832 179.087ZM398.408 181.164L395.39 180.426C395.442 180.818 395.38 181.169 395.196 181.423L397.965 184.075C398.494 183.348 398.631 182.311 398.408 181.164ZM388.486 178.444L391.505 179.182C391.437 178.86 391.441 178.559 391.522 178.308L388.687 175.593C388.288 176.349 388.229 177.354 388.486 178.444Z" fill="#4C4C4C"/>
</g>
<path fill-rule="evenodd" clip-rule="evenodd" d="M386.854 171.823L391.315 168.179L391.316 168.179C391.343 168.156 391.372 168.133 391.4 168.11C394.069 165.983 399.182 167.749 402.82 172.054C406.458 176.36 407.243 181.575 404.574 183.702C404.549 183.722 404.524 183.741 404.499 183.761L400.165 187.305L395.905 182.349C394.94 181.637 394.007 180.767 393.154 179.758C392.368 178.827 391.715 177.854 391.201 176.879L386.854 171.823Z" fill="black"/>
<path d="M388.779 183.579C392.371 187.831 397.415 189.58 400.044 187.485C402.673 185.389 401.891 180.244 398.298 175.992C394.705 171.739 389.462 169.764 386.834 171.859C384.205 173.954 385.186 179.327 388.779 183.579Z" fill="#222222"/>
<g filter="url(#filter2_d_40_122)">
<path d="M398.149 185.364C396.289 186.88 392.688 185.557 390.106 182.411C387.524 179.264 386.94 175.485 388.801 173.969C390.661 172.453 394.262 173.776 396.844 176.922C399.425 180.069 400.01 183.849 398.149 185.364Z" fill="url(#paint1_linear_40_122)"/>
</g>
<g filter="url(#filter3_di_40_122)">
<path fill-rule="evenodd" clip-rule="evenodd" d="M391.269 182.03C392.972 183.916 395.159 184.777 396.53 184.133L394.707 181.945C394.099 182.054 393.286 181.711 392.592 181.037L391.269 182.03ZM390.725 181.37C389.22 179.361 388.79 177.087 389.636 175.855L391.458 178.043C391.242 178.648 391.454 179.554 392.037 180.386L390.725 181.37ZM394.556 178.497C393.763 177.619 392.757 177.193 392.081 177.419L390.283 175.26C391.691 174.464 394.085 175.41 395.868 177.512L394.556 178.497ZM395.067 179.181L396.391 178.188C397.806 180.206 398.149 182.436 397.22 183.591L395.422 181.432C395.71 180.887 395.573 180.016 395.067 179.181Z" fill="#A9A8A8"/>
</g>
<path fill-rule="evenodd" clip-rule="evenodd" d="M343.843 164.168L348.162 161.752L348.163 161.754C348.191 161.738 348.219 161.722 348.247 161.707C350.823 160.307 354.825 162.559 357.186 166.738C359.547 170.916 359.373 175.439 356.797 176.839C356.765 176.857 356.732 176.874 356.7 176.89L352.525 179.227L349.741 174.398C349.05 173.654 348.41 172.784 347.859 171.808C347.35 170.909 346.96 169.994 346.685 169.097L343.843 164.168Z" fill="black"/>
<path d="M352.51 179.234C349.934 180.635 345.934 178.385 343.574 174.21C341.215 170.034 341.391 165.514 343.966 164.114C346.542 162.714 350.543 164.963 352.902 169.139C355.261 173.314 355.086 177.834 352.51 179.234Z" fill="black"/>
<g filter="url(#filter4_d_40_122)">
<path d="M351.29 177.363C349.358 178.413 346.358 176.726 344.588 173.594C342.819 170.463 342.951 167.073 344.882 166.022C346.814 164.972 349.815 166.66 351.584 169.791C353.354 172.923 353.222 176.313 351.29 177.363Z" fill="url(#paint2_linear_40_122)"/>
</g>
<g filter="url(#filter5_di_40_122)">
<path fill-rule="evenodd" clip-rule="evenodd" d="M347.905 167.065C348.496 167.337 349.09 167.763 349.641 168.317L348.632 170.361C348.471 170.207 348.301 170.081 348.13 169.988L347.905 167.065ZM348.41 173.616C348.653 173.679 348.886 173.669 349.086 173.572L350.997 176.244C350.917 176.304 350.834 176.358 350.745 176.406C350.134 176.738 349.394 176.741 348.63 176.472L348.41 173.616ZM348.37 176.371L348.15 173.521C347.948 173.428 347.745 173.288 347.553 173.108L346.565 175.11C347.138 175.678 347.758 176.108 348.37 176.371ZM347.869 169.871L347.644 166.955C346.842 166.647 346.061 166.633 345.42 166.981C345.242 167.078 345.081 167.2 344.94 167.342L346.866 170.036C346.921 169.981 346.982 169.935 347.051 169.897C347.287 169.769 347.574 169.768 347.869 169.871ZM345.176 173.274C345.528 173.897 345.939 174.451 346.382 174.922L347.37 172.92C347.218 172.751 347.078 172.556 346.956 172.34C346.944 172.319 346.933 172.298 346.922 172.277L345.009 172.964C345.062 173.068 345.118 173.171 345.176 173.274ZM348.815 170.551L349.823 168.507C350.251 168.969 350.648 169.508 350.99 170.113C351.06 170.237 351.126 170.362 351.189 170.486L349.251 171.183C349.238 171.159 349.226 171.136 349.212 171.113C349.095 170.904 348.96 170.716 348.815 170.551ZM344.9 172.746C344.483 171.876 344.239 170.999 344.165 170.193L346.578 171.266C346.615 171.52 346.693 171.79 346.814 172.059L344.9 172.746ZM349.358 171.401C349.502 171.724 349.585 172.047 349.608 172.344L352.017 173.415C351.971 172.569 351.732 171.634 351.296 170.705L349.358 171.401ZM352.025 173.688L349.611 172.615C349.593 172.953 349.486 173.24 349.291 173.428L351.189 176.081C351.748 175.545 352.029 174.69 352.025 173.688ZM344.146 169.915L346.555 170.986C346.549 170.703 346.601 170.449 346.709 170.248L344.769 167.535C344.314 168.115 344.104 168.955 344.146 169.915Z" fill="#4C4C4C"/>
</g>
<path fill-rule="evenodd" clip-rule="evenodd" d="M349.953 174.854C348.955 173.966 348.025 172.821 347.265 171.476C346.549 170.207 346.066 168.907 345.812 167.672L343.861 164.287L346.149 163.008C346.492 162.297 346.994 161.733 347.654 161.374C350.23 159.974 354.232 162.226 356.593 166.405C358.848 170.396 358.79 174.702 356.535 176.3L356.694 176.573L352.543 179.347L349.953 174.854Z" fill="black"/>
<path d="M352.478 179.377C349.911 180.773 345.923 178.531 343.571 174.369C341.22 170.207 341.395 165.701 343.962 164.305C346.53 162.909 350.517 165.152 352.869 169.314C355.221 173.476 355.046 177.981 352.478 179.377Z" fill="#222222"/>
<g filter="url(#filter6_d_40_122)">
<g filter="url(#filter7_d_40_122)">
<path d="M351.181 177.351C349.348 178.3 346.493 176.61 344.803 173.576C343.113 170.542 343.228 167.314 345.06 166.365C346.893 165.416 349.748 167.106 351.438 170.139C353.128 173.173 353.013 176.402 351.181 177.351Z" fill="url(#paint3_linear_40_122)"/>
</g>
<g filter="url(#filter8_di_40_122)">
<path fill-rule="evenodd" clip-rule="evenodd" d="M345.772 173.507C346.86 175.256 348.468 176.307 349.713 176.128L348.592 173.97C348.093 173.915 347.525 173.527 347.081 172.924L345.772 173.507ZM345.405 172.849C344.414 170.856 344.457 168.816 345.484 167.984L346.604 170.142C346.28 170.607 346.305 171.443 346.695 172.275L345.405 172.849ZM349.178 171.168C348.668 170.294 347.893 169.745 347.273 169.775L346.17 167.651C347.512 167.342 349.341 168.563 350.466 170.595L349.178 171.168ZM349.491 171.85L350.797 171.268C351.642 173.215 351.503 175.132 350.43 175.855L349.327 173.732C349.697 173.362 349.756 172.63 349.491 171.85Z" fill="#A9A8A8"/>
</g>
</g>
<g filter="url(#filter9_ii_40_122)">
<path d="M436.538 164.024C436.88 162.541 436.398 161.435 436.148 160.384L435.426 157.727C434.852 155.617 434.382 153.803 434.173 153.116C433.962 152.429 434.215 150.207 429.374 147.543C425.027 145.152 416.413 143.355 414.398 143.387C412.383 143.419 401.421 134.62 397.87 133.284C387.267 129.294 363.128 129.277 357.573 130.797C354.319 131.547 342.608 141.647 341.348 142.945C334.838 149.659 339.579 146.376 335.744 154.925C335.479 155.383 335.718 157.255 336.047 158.274C336.08 158.376 336.094 158.482 336.081 158.588C336.031 159.018 335.945 159.679 335.95 159.803C335.986 160.68 337.666 164.623 337.882 165.42C338.136 166.351 338.403 168.094 338.851 168.981C339.299 169.869 342.38 171.441 342.327 171.15C342.043 170.105 342.064 169.898 341.897 168.148C341.941 165.335 342.935 163.823 343.918 163.328C345.976 162.293 348.2 162.608 350.489 164.814C354.674 168.847 354.519 172.232 355.345 174.301C355.428 174.507 355.619 174.648 355.843 174.692L385.4 180.521C386 180.639 386.443 180.066 386.252 179.505C386.222 179.415 386.181 179.291 386.117 179.1C385.732 177.954 384.258 172.468 387.479 170.329C390.317 168.444 395.307 171.124 398 173.668C400.159 175.706 402.664 180.287 403.73 183.064C403.82 183.298 404.023 183.472 404.278 183.521C406.388 183.928 412.202 184.877 419.241 180.471C434.138 171.146 436.196 165.503 436.538 164.024Z" fill="url(#paint4_linear_40_122)"/>
</g>
<mask id="mask0_40_122" style="mask-type:alpha" maskUnits="userSpaceOnUse" x="335" y="129" width="102" height="55">
<path d="M436.538 164.024C436.88 162.541 436.398 161.435 436.148 160.384L435.426 157.727C434.852 155.617 434.382 153.803 434.173 153.116C433.962 152.429 434.215 150.207 429.374 147.543C425.027 145.152 416.413 143.355 414.398 143.387C412.383 143.419 401.421 134.62 397.87 133.284C387.267 129.294 363.128 129.277 357.573 130.797C354.319 131.547 342.608 141.647 341.348 142.945C334.838 149.659 339.579 146.376 335.744 154.925C335.479 155.383 335.718 157.255 336.047 158.274C336.08 158.376 336.094 158.482 336.081 158.588C336.031 159.018 335.945 159.679 335.95 159.803C335.986 160.68 337.666 164.623 337.882 165.42C338.136 166.351 338.403 168.094 338.851 168.981C339.299 169.869 342.38 171.441 342.327 171.15C342.274 170.859 341.999 169.217 341.633 168.133C341.112 166.217 342.337 164.124 343.918 163.328C345.976 162.293 348.147 162.414 350.436 164.62C355.002 169.02 354.059 172.212 354.801 174.26C354.877 174.469 355.07 174.61 355.295 174.654L385.331 180.511C385.944 180.63 386.385 180.032 386.192 179.46C386.16 179.366 386.12 179.243 386.062 179.07C385.677 177.924 384.258 172.468 387.479 170.329C390.317 168.444 395.307 171.124 398 173.668C400.159 175.706 402.664 180.287 403.73 183.064C403.82 183.298 404.023 183.472 404.278 183.521C406.388 183.928 412.202 184.877 419.241 180.471C434.138 171.146 436.196 165.503 436.538 164.024Z" fill="url(#paint5_linear_40_122)"/>
</mask>
<g mask="url(#mask0_40_122)">
<g filter="url(#filter10_ddi_40_122)">
<path d="M389.14 159.462C385.982 158.235 385.532 155.733 379.612 149.862C379.258 149.511 379.299 148.933 379.705 148.622L398.103 134.557C398.369 134.354 398.738 134.204 399.037 134.342C399.814 134.7 401.798 135.853 406.859 139.371C410.057 141.595 410.712 142.188 412.982 143.442C413.253 143.591 412.968 144.261 412.239 145.248C409.914 148.396 394.432 161.518 389.14 159.462Z" fill="url(#paint6_linear_40_122)"/>
</g>
<g filter="url(#filter11_di_40_122)">
<path d="M358.833 145.855C352.349 144.719 350.682 144.824 347.059 147.394C345.227 148.693 342.933 150.2 342.936 151.629C342.939 153.059 349.71 154.618 351.688 155.061C352.654 155.278 386.956 162.316 385.847 160.708C384.487 158.737 377.903 151.151 375.739 149.367C374.347 148.219 365.317 146.991 358.833 145.855Z" fill="url(#paint7_linear_40_122)"/>
</g>
<g filter="url(#filter12_f_40_122)">
<path d="M399.708 168.642C391.448 167.377 386.189 164.39 380.726 161.839C394.965 161.977 424.864 162.624 424.576 163.278C424.216 164.095 422.445 165.431 415.959 167.665C409.573 169.864 400.654 168.787 399.708 168.642Z" fill="url(#paint8_linear_40_122)" fill-opacity="0.21"/>
</g>
<g filter="url(#filter13_f_40_122)">
<path d="M423.898 145.192C423.391 144.977 416.71 141.193 412.065 139.67C416.975 144.867 427.995 156.068 428.667 155.813C429.508 155.494 433.263 153.705 433.726 150.813C434.183 147.965 424.534 145.462 423.898 145.192Z" fill="url(#paint9_linear_40_122)" fill-opacity="0.13"/>
</g>
<g filter="url(#filter14_di_40_122)">
<path d="M370.618 162.455C370.59 162.35 370.501 162.272 370.391 162.253L367.608 161.778C367.395 161.741 367.212 161.933 367.267 162.135L367.36 162.478C367.388 162.582 367.477 162.661 367.588 162.68L370.369 163.15C370.582 163.186 370.765 162.994 370.71 162.793L370.618 162.455Z" fill="#323232"/>
</g>
<g filter="url(#filter15_di_40_122)">
<path d="M354.899 160.351C354.87 160.246 354.782 160.168 354.671 160.149L351.889 159.674C351.676 159.637 351.492 159.829 351.547 160.031L351.64 160.374C351.669 160.479 351.757 160.557 351.868 160.576L354.649 161.046C354.862 161.082 355.045 160.89 354.991 160.689L354.899 160.351Z" fill="#323232"/>
</g>
<path d="M405.552 151.517L386.506 143.544C384.718 144.57 380.879 147.688 380.126 148.217C379.152 148.901 379.356 149.485 379.356 149.485C379.441 149.798 379.343 149.59 379.854 150.115C380.702 150.987 381.407 151.78 383.353 154.09C386.696 158.059 387.456 159.08 389.54 159.623C391.109 160.032 394 159.404 397.159 157.366C399.983 155.543 403.206 153.392 405.552 151.517Z" fill="#C4C4C4" fill-opacity="0.2"/>
<g opacity="0.17" filter="url(#filter16_f_40_122)">
<path d="M429.735 150.965C426.103 155.686 417.272 163.431 412.934 165.431" stroke="url(#paint10_linear_40_122)" stroke-width="85.1996" stroke-linecap="round" stroke-linejoin="round"/>
</g>
<g filter="url(#filter17_ddii_40_122)">
<path d="M431.879 152.482C432.455 151.088 431.959 150.235 431.435 148.825C431.42 148.787 431.399 148.748 431.376 148.713C430.682 147.678 433.008 149.587 433.629 151.179C433.836 151.706 433.874 151.991 433.957 152.506C433.995 152.742 433.605 154.478 433.761 154.76C433.917 155.042 434.451 157.341 434.547 157.653C434.645 157.964 434.057 160.308 431.069 163.552C428.586 166.247 424.624 168.655 424.2 168.836C423.776 169.018 422.959 167.719 422.618 167.729C421.726 167.753 419.49 169.3 418.628 169.775C417.622 170.329 415.272 171.615 412.434 172.028C408.923 172.54 408.303 172.312 404.737 171.537C402.479 171.046 400.515 169.475 399.596 168.445C399.347 168.166 399.572 167.795 399.957 167.811C402.311 167.905 407.195 168.216 412.374 167.331C420.07 166.016 425.062 160.982 425.777 160.259C428.782 157.221 430.448 155.945 431.879 152.482Z" fill="#272727"/>
</g>
<mask id="mask1_40_122" style="mask-type:alpha" maskUnits="userSpaceOnUse" x="399" y="148" width="36" height="25">
<path d="M431.879 152.468C432.338 151.355 432.083 150.275 431.65 149.386C431.416 148.905 431.861 148.492 432.26 148.862C433.242 149.777 433.789 150.634 434.011 151.128C434.218 151.655 434.297 152.004 434.381 152.519C434.419 152.755 433.554 154.389 433.71 154.671C433.865 154.954 434.298 156.837 434.478 157.499C434.659 158.162 434.063 160.292 431.076 163.538C428.596 166.235 424.635 168.645 424.211 168.826C423.787 169.008 422.969 167.71 422.628 167.72C421.736 167.744 419.501 169.293 418.639 169.768C417.633 170.323 415.284 171.61 412.446 172.025C408.936 172.539 408.316 172.311 404.75 171.539C402.484 171.048 400.515 169.471 399.599 168.442C399.351 168.164 399.574 167.8 399.96 167.815C402.311 167.908 407.2 168.217 412.383 167.328C420.079 166.009 425.068 160.972 425.783 160.248C428.785 157.208 430.45 155.931 431.879 152.468Z" fill="#272727"/>
</mask>
<g mask="url(#mask1_40_122)">
<g filter="url(#filter18_d_40_122)">
<path d="M405.048 167.445L415.173 164.83C415.174 164.832 415.176 164.833 415.177 164.835C415.226 164.905 415.292 165.008 415.359 165.137C415.492 165.396 415.624 165.754 415.629 166.16C415.633 166.562 415.514 167.019 415.134 167.488C414.751 167.96 414.094 168.453 413.007 168.906C412.362 169.175 411.436 169.425 410.439 169.512C409.441 169.6 408.386 169.523 407.474 169.152C406.98 168.952 406.311 168.473 405.752 168.029C405.475 167.809 405.231 167.603 405.056 167.451C405.053 167.449 405.051 167.447 405.048 167.445Z" stroke="white" stroke-opacity="0.9" stroke-width="3.58537"/>
</g>
<g filter="url(#filter19_d_40_122)">
<path d="M431.589 149.313C431.59 149.315 431.591 149.316 431.593 149.317C431.728 149.449 431.906 149.643 432.072 149.895C432.406 150.397 432.691 151.117 432.524 152.011C432.476 152.266 432.361 152.458 432.22 152.562C432.089 152.659 431.911 152.699 431.672 152.609C431.507 152.547 431.307 152.559 431.129 152.59C430.943 152.622 430.748 152.681 430.572 152.743C430.497 152.769 430.426 152.796 430.358 152.823L431.589 149.313Z" stroke="white" stroke-opacity="0.9" stroke-width="3.58537"/>
</g>
</g>
</g>
</g>
<defs>
<filter id="filter0_d_40_122" x="386.009" y="171.87" width="14.8316" height="15.6204" filterUnits="userSpaceOnUse" color-interpolation-filters="sRGB">
<feFlood flood-opacity="0" result="BackgroundImageFix"/>
<feColorMatrix in="SourceAlpha" type="matrix" values="0 0 0 0 0 0 0 0 0 0 0 0 0 0 0 0 0 0 127 0" result="hardAlpha"/>
<feOffset/>
<feGaussianBlur stdDeviation="0.645451"/>
<feComposite in2="hardAlpha" operator="out"/>
<feColorMatrix type="matrix" values="0 0 0 0 0 0 0 0 0 0 0 0 0 0 0 0 0 0 0.25 0"/>
<feBlend mode="normal" in2="BackgroundImageFix" result="effect1_dropShadow_40_122"/>
<feBlend mode="normal" in="SourceGraphic" in2="effect1_dropShadow_40_122" result="shape"/>
</filter>
<filter id="filter1_di_40_122" x="384.458" y="174.006" width="14.8272" height="13.6754" filterUnits="userSpaceOnUse" color-interpolation-filters="sRGB">
<feFlood flood-opacity="0" result="BackgroundImageFix"/>
<feColorMatrix in="SourceAlpha" type="matrix" values="0 0 0 0 0 0 0 0 0 0 0 0 0 0 0 0 0 0 127 0" result="hardAlpha"/>
<feOffset dy="0.516361"/>
<feGaussianBlur stdDeviation="0.387271"/>
<feColorMatrix type="matrix" values="0 0 0 0 1 0 0 0 0 1 0 0 0 0 1 0 0 0 0.41 0"/>
<feBlend mode="normal" in2="BackgroundImageFix" result="effect1_dropShadow_40_122"/>
<feBlend mode="normal" in="SourceGraphic" in2="effect1_dropShadow_40_122" result="shape"/>
<feColorMatrix in="SourceAlpha" type="matrix" values="0 0 0 0 0 0 0 0 0 0 0 0 0 0 0 0 0 0 127 0" result="hardAlpha"/>
<feOffset dx="-3.87271" dy="2.5818"/>
<feGaussianBlur stdDeviation="1.93635"/>
<feComposite in2="hardAlpha" operator="arithmetic" k2="-1" k3="1"/>
<feColorMatrix type="matrix" values="0 0 0 0 0 0 0 0 0 0 0 0 0 0 0 0 0 0 0.25 0"/>
<feBlend mode="normal" in2="shape" result="effect2_innerShadow_40_122"/>
</filter>
<filter id="filter2_d_40_122" x="386.071" y="171.7" width="14.8069" height="15.9333" filterUnits="userSpaceOnUse" color-interpolation-filters="sRGB">
<feFlood flood-opacity="0" result="BackgroundImageFix"/>
<feColorMatrix in="SourceAlpha" type="matrix" values="0 0 0 0 0 0 0 0 0 0 0 0 0 0 0 0 0 0 127 0" result="hardAlpha"/>
<feOffset/>
<feGaussianBlur stdDeviation="0.820596"/>
<feComposite in2="hardAlpha" operator="out"/>
<feColorMatrix type="matrix" values="0 0 0 0 0 0 0 0 0 0 0 0 0 0 0 0 0 0 0.25 0"/>
<feBlend mode="normal" in2="BackgroundImageFix" result="effect1_dropShadow_40_122"/>
<feBlend mode="normal" in="SourceGraphic" in2="effect1_dropShadow_40_122" result="shape"/>
</filter>
<filter id="filter3_di_40_122" x="387.109" y="174.84" width="11.3298" height="10.9042" filterUnits="userSpaceOnUse" color-interpolation-filters="sRGB">
<feFlood flood-opacity="0" result="BackgroundImageFix"/>
<feColorMatrix in="SourceAlpha" type="matrix" values="0 0 0 0 0 0 0 0 0 0 0 0 0 0 0 0 0 0 127 0" result="hardAlpha"/>
<feOffset dy="0.559715"/>
<feGaussianBlur stdDeviation="0.349822"/>
<feColorMatrix type="matrix" values="0 0 0 0 1 0 0 0 0 1 0 0 0 0 1 0 0 0 0.59 0"/>
<feBlend mode="normal" in2="BackgroundImageFix" result="effect1_dropShadow_40_122"/>
<feBlend mode="normal" in="SourceGraphic" in2="effect1_dropShadow_40_122" result="shape"/>
<feColorMatrix in="SourceAlpha" type="matrix" values="0 0 0 0 0 0 0 0 0 0 0 0 0 0 0 0 0 0 127 0" result="hardAlpha"/>
<feOffset dx="-2.09893" dy="1.39929"/>
<feGaussianBlur stdDeviation="1.04947"/>
<feComposite in2="hardAlpha" operator="arithmetic" k2="-1" k3="1"/>
<feColorMatrix type="matrix" values="0 0 0 0 0 0 0 0 0 0 0 0 0 0 0 0 0 0 0.25 0"/>
<feBlend mode="normal" in2="shape" result="effect2_innerShadow_40_122"/>
</filter>
<filter id="filter4_d_40_122" x="342.239" y="164.606" width="11.6952" height="14.1731" filterUnits="userSpaceOnUse" color-interpolation-filters="sRGB">
<feFlood flood-opacity="0" result="BackgroundImageFix"/>
<feColorMatrix in="SourceAlpha" type="matrix" values="0 0 0 0 0 0 0 0 0 0 0 0 0 0 0 0 0 0 127 0" result="hardAlpha"/>
<feOffset/>
<feGaussianBlur stdDeviation="0.552069"/>
<feComposite in2="hardAlpha" operator="out"/>
<feColorMatrix type="matrix" values="0 0 0 0 0 0 0 0 0 0 0 0 0 0 0 0 0 0 0.25 0"/>
<feBlend mode="normal" in2="BackgroundImageFix" result="effect1_dropShadow_40_122"/>
<feBlend mode="normal" in="SourceGraphic" in2="effect1_dropShadow_40_122" result="shape"/>
</filter>
<filter id="filter5_di_40_122" x="340.828" y="166.501" width="11.8589" height="12.3722" filterUnits="userSpaceOnUse" color-interpolation-filters="sRGB">
<feFlood flood-opacity="0" result="BackgroundImageFix"/>
<feColorMatrix in="SourceAlpha" type="matrix" values="0 0 0 0 0 0 0 0 0 0 0 0 0 0 0 0 0 0 127 0" result="hardAlpha"/>
<feOffset dy="0.441655"/>
<feGaussianBlur stdDeviation="0.331241"/>
<feColorMatrix type="matrix" values="0 0 0 0 1 0 0 0 0 1 0 0 0 0 1 0 0 0 0.41 0"/>
<feBlend mode="normal" in2="BackgroundImageFix" result="effect1_dropShadow_40_122"/>
<feBlend mode="normal" in="SourceGraphic" in2="effect1_dropShadow_40_122" result="shape"/>
<feColorMatrix in="SourceAlpha" type="matrix" values="0 0 0 0 0 0 0 0 0 0 0 0 0 0 0 0 0 0 127 0" result="hardAlpha"/>
<feOffset dx="-3.31241" dy="2.20827"/>
<feGaussianBlur stdDeviation="1.65621"/>
<feComposite in2="hardAlpha" operator="arithmetic" k2="-1" k3="1"/>
<feColorMatrix type="matrix" values="0 0 0 0 0 0 0 0 0 0 0 0 0 0 0 0 0 0 0.25 0"/>
<feBlend mode="normal" in2="shape" result="effect2_innerShadow_40_122"/>
</filter>
<filter id="filter6_d_40_122" x="342.625" y="165.119" width="10.9907" height="13.4773" filterUnits="userSpaceOnUse" color-interpolation-filters="sRGB">
<feFlood flood-opacity="0" result="BackgroundImageFix"/>
<feColorMatrix in="SourceAlpha" type="matrix" values="0 0 0 0 0 0 0 0 0 0 0 0 0 0 0 0 0 0 127 0" result="hardAlpha"/>
<feOffset/>
<feGaussianBlur stdDeviation="0.490839"/>
<feComposite in2="hardAlpha" operator="out"/>
<feColorMatrix type="matrix" values="0 0 0 0 0 0 0 0 0 0 0 0 0 0 0 0 0 0 0.25 0"/>
<feBlend mode="normal" in2="BackgroundImageFix" result="effect1_dropShadow_40_122"/>
<feBlend mode="normal" in="SourceGraphic" in2="effect1_dropShadow_40_122" result="shape"/>
</filter>
<filter id="filter7_d_40_122" x="341.907" y="164.401" width="12.427" height="14.9137" filterUnits="userSpaceOnUse" color-interpolation-filters="sRGB">
<feFlood flood-opacity="0" result="BackgroundImageFix"/>
<feColorMatrix in="SourceAlpha" type="matrix" values="0 0 0 0 0 0 0 0 0 0 0 0 0 0 0 0 0 0 127 0" result="hardAlpha"/>
<feOffset/>
<feGaussianBlur stdDeviation="0.849919"/>
<feComposite in2="hardAlpha" operator="out"/>
<feColorMatrix type="matrix" values="0 0 0 0 0 0 0 0 0 0 0 0 0 0 0 0 0 0 0.25 0"/>
<feBlend mode="normal" in2="BackgroundImageFix" result="effect1_dropShadow_40_122"/>
<feBlend mode="normal" in="SourceGraphic" in2="effect1_dropShadow_40_122" result="shape"/>
</filter>
<filter id="filter8_di_40_122" x="342.513" y="167.458" width="9.5569" height="10.1388" filterUnits="userSpaceOnUse" color-interpolation-filters="sRGB">
<feFlood flood-opacity="0" result="BackgroundImageFix"/>
<feColorMatrix in="SourceAlpha" type="matrix" values="0 0 0 0 0 0 0 0 0 0 0 0 0 0 0 0 0 0 127 0" result="hardAlpha"/>
<feOffset dy="0.579716"/>
<feGaussianBlur stdDeviation="0.362322"/>
<feColorMatrix type="matrix" values="0 0 0 0 1 0 0 0 0 1 0 0 0 0 1 0 0 0 0.59 0"/>
<feBlend mode="normal" in2="BackgroundImageFix" result="effect1_dropShadow_40_122"/>
<feBlend mode="normal" in="SourceGraphic" in2="effect1_dropShadow_40_122" result="shape"/>
<feColorMatrix in="SourceAlpha" type="matrix" values="0 0 0 0 0 0 0 0 0 0 0 0 0 0 0 0 0 0 127 0" result="hardAlpha"/>
<feOffset dx="-2.17393" dy="1.44929"/>
<feGaussianBlur stdDeviation="1.08697"/>
<feComposite in2="hardAlpha" operator="arithmetic" k2="-1" k3="1"/>
<feColorMatrix type="matrix" values="0 0 0 0 0 0 0 0 0 0 0 0 0 0 0 0 0 0 0.25 0"/>
<feBlend mode="normal" in2="shape" result="effect2_innerShadow_40_122"/>
</filter>
<filter id="filter9_ii_40_122" x="335.631" y="116.734" width="110.873" height="67.1624" filterUnits="userSpaceOnUse" color-interpolation-filters="sRGB">
<feFlood flood-opacity="0" result="BackgroundImageFix"/>
<feBlend mode="normal" in="SourceGraphic" in2="BackgroundImageFix" result="shape"/>
<feColorMatrix in="SourceAlpha" type="matrix" values="0 0 0 0 0 0 0 0 0 0 0 0 0 0 0 0 0 0 127 0" result="hardAlpha"/>
<feOffset dx="9.84715" dy="-13.1295"/>
<feGaussianBlur stdDeviation="39.3886"/>
<feComposite in2="hardAlpha" operator="arithmetic" k2="-1" k3="1"/>
<feColorMatrix type="matrix" values="0 0 0 0 0 0 0 0 0 0 0 0 0 0 0 0 0 0 0.07 0"/>
<feBlend mode="normal" in2="shape" result="effect1_innerShadow_40_122"/>
<feColorMatrix in="SourceAlpha" type="matrix" values="0 0 0 0 0 0 0 0 0 0 0 0 0 0 0 0 0 0 127 0" result="hardAlpha"/>
<feOffset dy="-1.64119"/>
<feGaussianBlur stdDeviation="3.28238"/>
<feComposite in2="hardAlpha" operator="arithmetic" k2="-1" k3="1"/>
<feColorMatrix type="matrix" values="0 0 0 0 0 0 0 0 0 0 0 0 0 0 0 0 0 0 0.09 0"/>
<feBlend mode="normal" in2="effect1_innerShadow_40_122" result="effect2_innerShadow_40_122"/>
</filter>
<filter id="filter10_ddi_40_122" x="374.208" y="130.416" width="41.4571" height="33.1355" filterUnits="userSpaceOnUse" color-interpolation-filters="sRGB">
<feFlood flood-opacity="0" result="BackgroundImageFix"/>
<feColorMatrix in="SourceAlpha" type="matrix" values="0 0 0 0 0 0 0 0 0 0 0 0 0 0 0 0 0 0 127 0" result="hardAlpha"/>
<feOffset dx="-2.5818" dy="1.2909"/>
<feGaussianBlur stdDeviation="1.2909"/>
<feColorMatrix type="matrix" values="0 0 0 0 1 0 0 0 0 1 0 0 0 0 1 0 0 0 0.28 0"/>
<feBlend mode="normal" in2="BackgroundImageFix" result="effect1_dropShadow_40_122"/>
<feColorMatrix in="SourceAlpha" type="matrix" values="0 0 0 0 0 0 0 0 0 0 0 0 0 0 0 0 0 0 127 0" result="hardAlpha"/>
<feOffset dy="-1.2909"/>
<feGaussianBlur stdDeviation="1.2909"/>
<feColorMatrix type="matrix" values="0 0 0 0 1 0 0 0 0 1 0 0 0 0 1 0 0 0 0.56 0"/>
<feBlend mode="normal" in2="effect1_dropShadow_40_122" result="effect2_dropShadow_40_122"/>
<feBlend mode="normal" in="SourceGraphic" in2="effect2_dropShadow_40_122" result="shape"/>
<feColorMatrix in="SourceAlpha" type="matrix" values="0 0 0 0 0 0 0 0 0 0 0 0 0 0 0 0 0 0 127 0" result="hardAlpha"/>
<feOffset dx="-1.2909" dy="3.87271"/>
<feGaussianBlur stdDeviation="1.93635"/>
<feComposite in2="hardAlpha" operator="arithmetic" k2="-1" k3="1"/>
<feColorMatrix type="matrix" values="0 0 0 0 0 0 0 0 0 0 0 0 0 0 0 0 0 0 0.75 0"/>
<feBlend mode="normal" in2="shape" result="effect3_innerShadow_40_122"/>
</filter>
<filter id="filter11_di_40_122" x="336.6" y="145.165" width="50.2236" height="20.3686" filterUnits="userSpaceOnUse" color-interpolation-filters="sRGB">
<feFlood flood-opacity="0" result="BackgroundImageFix"/>
<feColorMatrix in="SourceAlpha" type="matrix" values="0 0 0 0 0 0 0 0 0 0 0 0 0 0 0 0 0 0 127 0" result="hardAlpha"/>
<feOffset dy="0.950394"/>
<feGaussianBlur stdDeviation="0.475197"/>
<feColorMatrix type="matrix" values="0 0 0 0 0.925374 0 0 0 0 0.925374 0 0 0 0 0.925374 0 0 0 0.37 0"/>
<feBlend mode="normal" in2="BackgroundImageFix" result="effect1_dropShadow_40_122"/>
<feBlend mode="normal" in="SourceGraphic" in2="effect1_dropShadow_40_122" result="shape"/>
<feColorMatrix in="SourceAlpha" type="matrix" values="0 0 0 0 0 0 0 0 0 0 0 0 0 0 0 0 0 0 127 0" result="hardAlpha"/>
<feOffset dx="-6.33629" dy="4.58652"/>
<feGaussianBlur stdDeviation="3.16814"/>
<feComposite in2="hardAlpha" operator="arithmetic" k2="-1" k3="1"/>
<feColorMatrix type="matrix" values="0 0 0 0 0 0 0 0 0 0 0 0 0 0 0 0 0 0 0.63 0"/>
<feBlend mode="normal" in2="shape" result="effect2_innerShadow_40_122"/>
</filter>
<filter id="filter12_f_40_122" x="362.654" y="143.766" width="79.9975" height="43.3392" filterUnits="userSpaceOnUse" color-interpolation-filters="sRGB">
<feFlood flood-opacity="0" result="BackgroundImageFix"/>
<feBlend mode="normal" in="SourceGraphic" in2="BackgroundImageFix" result="shape"/>
<feGaussianBlur stdDeviation="9.0363" result="effect1_foregroundBlur_40_122"/>
</filter>
<filter id="filter13_f_40_122" x="400.446" y="128.052" width="44.9131" height="39.3836" filterUnits="userSpaceOnUse" color-interpolation-filters="sRGB">
<feFlood flood-opacity="0" result="BackgroundImageFix"/>
<feBlend mode="normal" in="SourceGraphic" in2="BackgroundImageFix" result="shape"/>
<feGaussianBlur stdDeviation="5.80905" result="effect1_foregroundBlur_40_122"/>
</filter>
<filter id="filter14_di_40_122" x="366.617" y="160.493" width="4.74341" height="5.86323" filterUnits="userSpaceOnUse" color-interpolation-filters="sRGB">
<feFlood flood-opacity="0" result="BackgroundImageFix"/>
<feColorMatrix in="SourceAlpha" type="matrix" values="0 0 0 0 0 0 0 0 0 0 0 0 0 0 0 0 0 0 127 0" result="hardAlpha"/>
<feOffset dy="-0.64026"/>
<feGaussianBlur stdDeviation="0.32013"/>
<feColorMatrix type="matrix" values="0 0 0 0 0.78755 0 0 0 0 0.78755 0 0 0 0 0.78755 0 0 0 0.19 0"/>
<feBlend mode="normal" in2="BackgroundImageFix" result="effect1_dropShadow_40_122"/>
<feBlend mode="normal" in="SourceGraphic" in2="effect1_dropShadow_40_122" result="shape"/>
<feColorMatrix in="SourceAlpha" type="matrix" values="0 0 0 0 0 0 0 0 0 0 0 0 0 0 0 0 0 0 127 0" result="hardAlpha"/>
<feOffset dy="3.2013"/>
<feGaussianBlur stdDeviation="1.60065"/>
<feComposite in2="hardAlpha" operator="arithmetic" k2="-1" k3="1"/>
<feColorMatrix type="matrix" values="0 0 0 0 0 0 0 0 0 0 0 0 0 0 0 0 0 0 0.74 0"/>
<feBlend mode="normal" in2="shape" result="effect2_innerShadow_40_122"/>
</filter>
<filter id="filter15_di_40_122" x="350.897" y="158.389" width="4.74353" height="5.86323" filterUnits="userSpaceOnUse" color-interpolation-filters="sRGB">
<feFlood flood-opacity="0" result="BackgroundImageFix"/>
<feColorMatrix in="SourceAlpha" type="matrix" values="0 0 0 0 0 0 0 0 0 0 0 0 0 0 0 0 0 0 127 0" result="hardAlpha"/>
<feOffset dy="-0.64026"/>
<feGaussianBlur stdDeviation="0.32013"/>
<feColorMatrix type="matrix" values="0 0 0 0 0.78755 0 0 0 0 0.78755 0 0 0 0 0.78755 0 0 0 0.19 0"/>
<feBlend mode="normal" in2="BackgroundImageFix" result="effect1_dropShadow_40_122"/>
<feBlend mode="normal" in="SourceGraphic" in2="effect1_dropShadow_40_122" result="shape"/>
<feColorMatrix in="SourceAlpha" type="matrix" values="0 0 0 0 0 0 0 0 0 0 0 0 0 0 0 0 0 0 127 0" result="hardAlpha"/>
<feOffset dy="3.2013"/>
<feGaussianBlur stdDeviation="1.60065"/>
<feComposite in2="hardAlpha" operator="arithmetic" k2="-1" k3="1"/>
<feColorMatrix type="matrix" values="0 0 0 0 0 0 0 0 0 0 0 0 0 0 0 0 0 0 0.74 0"/>
<feBlend mode="normal" in2="shape" result="effect2_innerShadow_40_122"/>
</filter>
<filter id="filter16_f_40_122" x="363.869" y="101.908" width="114.922" height="112.587" filterUnits="userSpaceOnUse" color-interpolation-filters="sRGB">
<feFlood flood-opacity="0" result="BackgroundImageFix"/>
<feBlend mode="normal" in="SourceGraphic" in2="BackgroundImageFix" result="shape"/>
<feGaussianBlur stdDeviation="3.22726" result="effect1_foregroundBlur_40_122"/>
</filter>
<filter id="filter17_ddii_40_122" x="397.992" y="146.17" width="38.0648" height="36.4686" filterUnits="userSpaceOnUse" color-interpolation-filters="sRGB">
<feFlood flood-opacity="0" result="BackgroundImageFix"/>
<feColorMatrix in="SourceAlpha" type="matrix" values="0 0 0 0 0 0 0 0 0 0 0 0 0 0 0 0 0 0 127 0" result="hardAlpha"/>
<feOffset dy="1.12467"/>
<feGaussianBlur stdDeviation="0.749782"/>
<feColorMatrix type="matrix" values="0 0 0 0 0 0 0 0 0 0 0 0 0 0 0 0 0 0 0.57 0"/>
<feBlend mode="normal" in2="BackgroundImageFix" result="effect1_dropShadow_40_122"/>
<feColorMatrix in="SourceAlpha" type="matrix" values="0 0 0 0 0 0 0 0 0 0 0 0 0 0 0 0 0 0 127 0" result="hardAlpha"/>
<feOffset dy="-0.749782"/>
<feGaussianBlur stdDeviation="0.749782"/>
<feColorMatrix type="matrix" values="0 0 0 0 0 0 0 0 0 0 0 0 0 0 0 0 0 0 1 0"/>
<feBlend mode="normal" in2="effect1_dropShadow_40_122" result="effect2_dropShadow_40_122"/>
<feBlend mode="normal" in="SourceGraphic" in2="effect2_dropShadow_40_122" result="shape"/>
<feColorMatrix in="SourceAlpha" type="matrix" values="0 0 0 0 0 0 0 0 0 0 0 0 0 0 0 0 0 0 127 0" result="hardAlpha"/>
<feOffset dy="10.3366"/>
<feGaussianBlur stdDeviation="10.5341"/>
<feComposite in2="hardAlpha" operator="arithmetic" k2="-1" k3="1"/>
<feColorMatrix type="matrix" values="0 0 0 0 0 0 0 0 0 0 0 0 0 0 0 0 0 0 1 0"/>
<feBlend mode="normal" in2="shape" result="effect3_innerShadow_40_122"/>
<feColorMatrix in="SourceAlpha" type="matrix" values="0 0 0 0 0 0 0 0 0 0 0 0 0 0 0 0 0 0 127 0" result="hardAlpha"/>
<feOffset dy="-1.12639"/>
<feGaussianBlur stdDeviation="1.12639"/>
<feComposite in2="hardAlpha" operator="arithmetic" k2="-1" k3="1"/>
<feColorMatrix type="matrix" values="0 0 0 0 0 0 0 0 0 0 0 0 0 0 0 0 0 0 0.5 0"/>
<feBlend mode="normal" in2="effect3_innerShadow_40_122" result="effect4_innerShadow_40_122"/>
</filter>
<filter id="filter18_d_40_122" x="401.004" y="162.793" width="19.0977" height="11.5142" filterUnits="userSpaceOnUse" color-interpolation-filters="sRGB">
<feFlood flood-opacity="0" result="BackgroundImageFix"/>
<feColorMatrix in="SourceAlpha" type="matrix" values="0 0 0 0 0 0 0 0 0 0 0 0 0 0 0 0 0 0 127 0" result="hardAlpha"/>
<feOffset dx="1.19512" dy="1.48457"/>
<feGaussianBlur stdDeviation="0.742284"/>
<feColorMatrix type="matrix" values="0 0 0 0 1 0 0 0 0 1 0 0 0 0 1 0 0 0 0.24 0"/>
<feBlend mode="normal" in2="BackgroundImageFix" result="effect1_dropShadow_40_122"/>
<feBlend mode="normal" in="SourceGraphic" in2="effect1_dropShadow_40_122" result="shape"/>
</filter>
<filter id="filter19_d_40_122" x="427.075" y="143.468" width="9.97109" height="15.4438" filterUnits="userSpaceOnUse" color-interpolation-filters="sRGB">
<feFlood flood-opacity="0" result="BackgroundImageFix"/>
<feColorMatrix in="SourceAlpha" type="matrix" values="0 0 0 0 0 0 0 0 0 0 0 0 0 0 0 0 0 0 127 0" result="hardAlpha"/>
<feOffset dx="1.19512" dy="1.48457"/>
<feGaussianBlur stdDeviation="0.742284"/>
<feColorMatrix type="matrix" values="0 0 0 0 1 0 0 0 0 1 0 0 0 0 1 0 0 0 0.24 0"/>
<feBlend mode="normal" in2="BackgroundImageFix" result="effect1_dropShadow_40_122"/>
<feBlend mode="normal" in="SourceGraphic" in2="effect1_dropShadow_40_122" result="shape"/>
</filter>
<linearGradient id="paint0_linear_40_122" x1="391.093" y1="186.677" x2="385.779" y2="180.836" gradientUnits="userSpaceOnUse">
<stop stop-color="#3F3F3F"/>
<stop offset="1" stop-color="#5C5C5C"/>
</linearGradient>
<linearGradient id="paint1_linear_40_122" x1="391.354" y1="186.389" x2="386.171" y2="180.833" gradientUnits="userSpaceOnUse">
<stop stop-color="#AAAAAA"/>
<stop offset="1" stop-color="#C2C2C2"/>
</linearGradient>
<linearGradient id="paint2_linear_40_122" x1="345.017" y1="177.256" x2="341.432" y2="171.572" gradientUnits="userSpaceOnUse">
<stop stop-color="#3F3F3F"/>
<stop offset="1" stop-color="#5C5C5C"/>
</linearGradient>
<linearGradient id="paint3_linear_40_122" x1="345.22" y1="177.079" x2="341.858" y2="171.526" gradientUnits="userSpaceOnUse">
<stop stop-color="#AAAAAA"/>
<stop offset="1" stop-color="#C2C2C2"/>
</linearGradient>
<linearGradient id="paint4_linear_40_122" x1="355.754" y1="170.913" x2="426.82" y2="139.834" gradientUnits="userSpaceOnUse">
<stop stop-color="#4506FA"/>
<stop offset="1" stop-color="#2F0DFF"/>
</linearGradient>
<linearGradient id="paint5_linear_40_122" x1="400.618" y1="171.917" x2="365.523" y2="126.999" gradientUnits="userSpaceOnUse">
<stop stop-color="#CECBCB"/>
<stop offset="1" stop-color="white"/>
</linearGradient>
<linearGradient id="paint6_linear_40_122" x1="390.611" y1="119.279" x2="372.589" y2="150.374" gradientUnits="userSpaceOnUse">
<stop stop-color="#E8EAE9"/>
<stop offset="0.498386" stop-color="#707072"/>
<stop offset="1" stop-color="#2F3032"/>
</linearGradient>
<linearGradient id="paint7_linear_40_122" x1="429.553" y1="202.789" x2="395.849" y2="130.715" gradientUnits="userSpaceOnUse">
<stop stop-color="#E8EAE9"/>
<stop offset="0.498386" stop-color="#707072"/>
<stop offset="1" stop-color="#2F3032"/>
</linearGradient>
<linearGradient id="paint8_linear_40_122" x1="403.768" y1="171.94" x2="404.256" y2="162.122" gradientUnits="userSpaceOnUse">
<stop stop-color="#ECEAEA"/>
<stop offset="1" stop-color="white" stop-opacity="0"/>
</linearGradient>
<linearGradient id="paint9_linear_40_122" x1="435.672" y1="146.114" x2="424.929" y2="153.703" gradientUnits="userSpaceOnUse">
<stop stop-color="#ECEAEA"/>
<stop offset="1" stop-color="white" stop-opacity="0"/>
</linearGradient>
<linearGradient id="paint10_linear_40_122" x1="422.852" y1="162.612" x2="419.734" y2="159.088" gradientUnits="userSpaceOnUse">
<stop stop-color="#4B4B4B"/>
<stop offset="0.899322" stop-opacity="0"/>
</linearGradient>
<clipPath id="clip0_40_122">
<rect width="1440" height="413" fill="white"/>
</clipPath>
</defs>
</svg>
