<svg width="1440" height="413" viewBox="0 0 1440 413" fill="none" xmlns="http://www.w3.org/2000/svg">
<g clip-path="url(#clip0_40_122)">
<rect width="1440" height="413" fill="white" fill-opacity="0.9"/>
<path d="M550.864 -311.371C769.694 -317.964 892.038 -278.697 1110.87 -285.371C1243 -289.401 1325.08 -359.069 1448.37 -311.371C1554.67 -270.245 1661.87 -226.35 1661.87 -112.371C1661.87 281.629 1600.93 6.12891 1221.37 114.379C1118.18 143.806 918.432 67.3789 833.432 114.379C748.432 161.379 715.865 73.3788 570.865 96.3788C425.865 119.379 381.409 67.8788 303.865 67.8788C182.865 67.8788 22.845 135.098 -81.3335 75.25C-185.512 15.4022 -147.068 -186.5 -147.068 -186.5C-147.068 -186.5 14.0482 -226.925 65.8647 -264.371C220.098 -375.83 360.659 -305.641 550.864 -311.371Z" fill="#864BFA"/>
<path d="M429.858 83.6951C433.553 81.9222 440.107 77.746 442.264 75.1632C444.792 72.4088 438.257 71.0932 437.467 70.8582C436.678 70.6231 398.35 61.7253 391.721 60.4797C385.092 59.2342 366.439 68.0181 362.125 71.2463C358.608 73.8775 361.587 74.7076 362.171 74.9815C362.755 75.2554 394.977 84.2747 406.414 86.7253C415.075 88.5811 422.604 87.1754 429.858 83.6951Z" fill="black" fill-opacity="0.1"/>
<path d="M408.178 70.9303C408.095 70.8102 403.818 70.9718 401.69 71.0676C401.029 71.7808 399.689 73.2719 399.614 73.5305C399.52 73.8538 400.096 76.156 402.039 77.5552C403.982 78.9545 407.14 75.7101 408.216 75.0997C409.292 74.4894 408.282 71.0805 408.178 70.9303Z" fill="#2C2C2C"/>
<path d="M375.686 63.4068C375.602 63.2867 371.326 63.4482 369.198 63.544C368.537 64.2573 367.196 65.7484 367.121 66.007C367.027 66.3303 367.604 68.6325 369.546 70.0317C371.489 71.4309 374.648 68.1866 375.724 67.5762C376.799 66.9659 375.79 63.5569 375.686 63.4068Z" fill="#131313"/>
<path fill-rule="evenodd" clip-rule="evenodd" d="M402.672 73.1907L406.299 70.8381L406.3 70.8396C406.322 70.8246 406.345 70.8099 406.368 70.7954C408.534 69.4251 412.255 70.902 414.678 74.0942C417.102 77.2863 417.31 80.985 415.144 82.3553C415.117 82.3723 415.09 82.3889 415.062 82.4051L411.559 84.6797L408.717 81.0061C408.043 80.4605 407.402 79.8058 406.833 79.0565C406.309 78.3653 405.888 77.6502 405.572 76.9403L402.672 73.1907Z" fill="black"/>
<path d="M411.549 84.6864C409.382 86.0567 405.663 84.5819 403.242 81.3922C400.82 78.2025 400.613 74.506 402.779 73.1357C404.946 71.7654 408.665 73.2403 411.086 76.4299C413.508 79.6196 413.715 83.3161 411.549 84.6864Z" fill="black"/>
<g filter="url(#filter0_d_40_122)">
<path d="M410.32 83.2717C408.696 84.2994 405.906 83.1932 404.09 80.8009C402.273 78.4085 402.118 75.636 403.743 74.6082C405.368 73.5804 408.157 74.6866 409.974 77.079C411.79 79.4713 411.945 82.2439 410.32 83.2717Z" fill="url(#paint0_linear_40_122)"/>
</g>
<g filter="url(#filter1_di_40_122)">
<path fill-rule="evenodd" clip-rule="evenodd" d="M406.503 75.1875C407.047 75.3565 407.606 75.6505 408.137 76.0519L407.409 77.8048C407.254 77.6944 407.094 77.6074 406.936 77.5468L406.503 75.1875ZM407.474 80.4761C407.693 80.5061 407.898 80.4773 408.067 80.381L409.971 82.3865C409.906 82.442 409.836 82.4933 409.762 82.5403C409.248 82.8652 408.594 82.9335 407.898 82.7838L407.474 80.4761ZM407.66 82.7245L407.237 80.4223C407.05 80.364 406.859 80.2678 406.675 80.1384L405.961 81.8588C406.513 82.2706 407.096 82.5658 407.66 82.7245ZM406.695 77.4747L406.263 75.1209C405.528 74.9413 404.835 74.9997 404.296 75.3407C404.145 75.4357 404.013 75.5488 403.899 75.6775L405.82 77.7005C405.865 77.6505 405.916 77.6066 405.974 77.5697C406.173 77.444 406.426 77.4173 406.695 77.4747ZM404.584 80.487C404.945 80.9632 405.353 81.3781 405.783 81.722L406.497 80.0014C406.35 79.8773 406.211 79.7314 406.086 79.5668C406.074 79.5509 406.062 79.5348 406.051 79.5188L404.412 80.2503C404.467 80.3296 404.524 80.4085 404.584 80.487ZM407.586 77.9431L408.313 76.1904C408.729 76.5281 409.123 76.9322 409.474 77.394C409.546 77.4888 409.614 77.5843 409.68 77.6803L408.023 78.4198C408.01 78.402 407.997 78.3842 407.984 78.3665C407.862 78.2068 407.728 78.0648 407.586 77.9431ZM404.298 80.0823C403.859 79.4107 403.572 78.7175 403.442 78.0671L405.666 78.7265C405.718 78.9303 405.809 79.1425 405.938 79.3506L404.298 80.0823ZM408.136 78.5883C408.289 78.8383 408.388 79.094 408.432 79.3338L410.647 79.9905C410.538 79.306 410.252 78.5661 409.792 77.849L408.136 78.5883ZM410.676 80.2123L408.457 79.5543C408.468 79.8321 408.395 80.0759 408.238 80.2458L410.128 82.2365C410.58 81.75 410.76 81.0284 410.676 80.2123ZM403.403 77.8423L405.623 78.5005C405.595 78.2716 405.62 78.0606 405.699 77.8881L403.764 75.85C403.408 76.3624 403.29 77.0652 403.403 77.8423Z" fill="#4C4C4C"/>
</g>
<path fill-rule="evenodd" clip-rule="evenodd" d="M402.66 73.1172L406.288 70.7647L406.288 70.7654C406.311 70.7502 406.334 70.7353 406.357 70.7207C408.523 69.3504 412.244 70.8273 414.667 74.0195C417.091 77.2116 417.299 80.9103 415.133 82.2806C415.113 82.2934 415.092 82.3059 415.072 82.3182L411.548 84.6063L408.703 80.929C408.03 80.3839 407.39 79.73 406.822 78.9819C406.299 78.2918 405.878 77.578 405.563 76.8692L402.66 73.1172Z" fill="black"/>
<path d="M403.247 81.4625C405.64 84.6151 409.31 86.0766 411.443 84.727C413.577 83.3774 413.366 79.7276 410.973 76.5751C408.579 73.4225 404.776 71.792 402.642 73.1417C400.509 74.4913 400.853 78.3099 403.247 81.4625Z" fill="#222222"/>
<g filter="url(#filter2_d_40_122)">
<path d="M410.172 83.1501C408.66 84.1282 406.045 83.0328 404.332 80.7033C402.619 78.3739 402.456 75.6927 403.969 74.7146C405.481 73.7365 408.096 74.832 409.809 77.1614C411.522 79.4908 411.685 82.172 410.172 83.1501Z" fill="url(#paint1_linear_40_122)"/>
</g>
<g filter="url(#filter3_di_40_122)">
<path fill-rule="evenodd" clip-rule="evenodd" d="M405.236 80.4898C406.38 81.8936 407.964 82.5989 409.043 82.2107L407.832 80.5895C407.365 80.6376 406.778 80.3596 406.305 79.854L405.236 80.4898ZM404.875 80.001C403.889 78.5208 403.732 76.9036 404.459 76.0775L405.671 77.6985C405.464 78.1136 405.557 78.7594 405.935 79.3707L404.875 80.001ZM407.971 78.1608C407.438 77.5075 406.712 77.1621 406.186 77.2893L404.99 75.6899C406.109 75.1958 407.843 75.9712 409.031 77.5305L407.971 78.1608ZM408.305 78.6652L409.375 78.0294C410.292 79.5116 410.387 81.0941 409.603 81.8619L408.407 80.2623C408.664 79.8929 408.625 79.2747 408.305 78.6652Z" fill="#A9A8A8"/>
</g>
<path fill-rule="evenodd" clip-rule="evenodd" d="M370.831 65.7481L374.261 64.2521L374.262 64.2535C374.284 64.2434 374.306 64.2337 374.329 64.2241C376.371 63.3602 379.22 65.1273 380.691 68.1712C382.162 71.2151 381.699 74.3831 379.656 75.2471C379.631 75.2579 379.605 75.2683 379.579 75.2783L376.264 76.7262L374.522 73.2055C374.056 72.6514 373.638 72.0105 373.294 71.3001C372.978 70.645 372.751 69.9841 372.61 69.3416L370.831 65.7481Z" fill="black"/>
<path d="M376.252 76.7306C374.209 77.5946 371.362 75.8294 369.892 72.7879C368.421 69.7464 368.886 66.5803 370.928 65.7163C372.971 64.8523 375.818 66.6175 377.288 69.6591C378.758 72.7006 378.294 75.8666 376.252 76.7306Z" fill="black"/>
<g filter="url(#filter4_d_40_122)">
<path d="M375.471 75.36C373.939 76.008 371.803 74.684 370.7 72.4028C369.598 70.1216 369.946 67.7469 371.478 67.0989C373.01 66.4509 375.145 67.7748 376.248 70.0561C377.351 72.3373 377.003 74.712 375.471 75.36Z" fill="url(#paint2_linear_40_122)"/>
</g>
<g filter="url(#filter5_di_40_122)">
<path fill-rule="evenodd" clip-rule="evenodd" d="M373.677 67.971C374.102 68.1894 374.519 68.5163 374.893 68.9307L373.983 70.3191C373.873 70.2038 373.754 70.1077 373.632 70.0342L373.677 67.971ZM373.577 72.5949C373.755 72.6508 373.931 72.6543 374.089 72.5952L375.332 74.5607C375.268 74.5988 375.201 74.6327 375.131 74.6623C374.646 74.8675 374.088 74.8349 373.533 74.6111L373.577 72.5949ZM373.344 74.5277L373.388 72.5165C373.242 72.4414 373.1 72.3336 372.969 72.1986L372.078 73.5589C372.467 73.9843 372.902 74.3151 373.344 74.5277ZM373.444 69.9397L373.489 67.8814C372.908 67.6283 372.32 67.5823 371.812 67.7972C371.671 67.8571 371.541 67.9349 371.424 68.0282L372.677 70.0093C372.722 69.9735 372.772 69.9438 372.826 69.9207C373.014 69.8414 373.229 69.8537 373.444 69.9397ZM371.166 72.2048C371.386 72.6588 371.654 73.0671 371.953 73.4183L372.844 72.058C372.743 71.932 372.652 71.7888 372.576 71.6314C372.568 71.6162 372.561 71.601 372.554 71.5858L371.063 71.9799C371.096 72.0549 371.13 72.13 371.166 72.2048ZM374.106 70.461L375.016 69.0726C375.304 69.4166 375.564 69.8142 375.777 70.2547C375.82 70.345 375.861 70.4354 375.899 70.5259L374.389 70.9252C374.381 70.9083 374.373 70.8914 374.365 70.8745C374.291 70.7226 374.204 70.5838 374.106 70.461ZM370.998 71.8216C370.747 71.1915 370.628 70.5638 370.631 69.9942L372.37 70.8598C372.378 71.0401 372.418 71.2329 372.489 71.4274L370.998 71.8216ZM374.453 71.0838C374.538 71.317 374.577 71.5477 374.572 71.7571L376.308 72.6212C376.335 72.025 376.224 71.357 375.964 70.6845L374.453 71.0838ZM376.294 72.8134L374.555 71.9478C374.516 72.1845 374.414 72.381 374.254 72.5036L375.488 74.455C375.949 74.1046 376.223 73.5173 376.294 72.8134ZM370.637 69.7981L372.373 70.6621C372.389 70.4631 372.447 70.287 372.543 70.1513L371.281 68.156C370.896 68.5418 370.676 69.1224 370.637 69.7981Z" fill="#4C4C4C"/>
</g>
<path fill-rule="evenodd" clip-rule="evenodd" d="M374.648 73.536C373.962 72.866 373.345 72.0186 372.872 71.0388C372.425 70.115 372.157 69.1796 372.057 68.3007L370.836 65.833L372.653 65.0403C372.963 64.5571 373.383 64.1844 373.906 63.9629C375.949 63.0989 378.797 64.8661 380.269 67.91C381.674 70.8176 381.314 73.8384 379.499 74.8562L379.598 75.0557L376.269 76.8111L374.648 73.536Z" fill="black"/>
<path d="M376.217 76.8294C374.181 77.6906 371.343 75.931 369.878 72.8993C368.412 69.8675 368.875 66.7116 370.911 65.8504C372.947 64.9891 375.785 66.7487 377.251 69.7805C378.716 72.8122 378.253 75.9681 376.217 76.8294Z" fill="#222222"/>
<g filter="url(#filter6_d_40_122)">
<g filter="url(#filter7_d_40_122)">
<path d="M375.389 75.346C373.94 75.9275 371.913 74.6084 370.863 72.3997C369.813 70.1909 370.137 67.929 371.587 67.3475C373.036 66.766 375.063 68.0851 376.113 70.2938C377.163 72.5026 376.839 74.7645 375.389 75.346Z" fill="url(#paint3_linear_40_122)"/>
</g>
<g filter="url(#filter8_di_40_122)">
<path fill-rule="evenodd" clip-rule="evenodd" d="M371.598 72.3962C372.289 73.675 373.423 74.4874 374.373 74.4196L373.688 72.852C373.316 72.79 372.917 72.4916 372.626 72.0476L371.598 72.3962ZM371.37 71.9174C370.77 70.4713 370.952 69.0413 371.787 68.5041L372.472 70.0717C372.193 70.3833 372.151 70.9715 372.383 71.5737L371.37 71.9174ZM374.335 70.9116C374.015 70.2739 373.472 69.8529 373.002 69.845L372.328 68.3022C373.361 68.1474 374.649 69.0893 375.347 70.5685L374.335 70.9116ZM374.521 71.405L375.547 71.0568C376.04 72.4631 375.795 73.8031 374.933 74.2613L374.259 72.7188C374.565 72.4766 374.663 71.9647 374.521 71.405Z" fill="#A9A8A8"/>
</g>
</g>
<g filter="url(#filter9_ii_40_122)">
<path d="M440.65 69.9425C441.017 68.9174 440.734 68.1178 440.624 67.3684L440.275 65.469C439.998 63.9605 439.777 62.665 439.67 62.1725C439.562 61.6804 439.915 60.132 436.465 58.0371C433.367 56.156 427.012 54.495 425.492 54.4242C423.972 54.3536 416.363 47.6665 413.787 46.5636C406.094 43.2698 387.917 42.1395 383.622 42.9499C381.116 43.3257 371.555 49.8753 370.511 50.7288C365.115 55.1423 368.926 53.0562 365.411 58.8824C365.178 59.1918 365.22 60.5171 365.393 61.2484C365.41 61.321 365.413 61.3962 365.395 61.4702C365.326 61.7697 365.213 62.2303 365.208 62.3175C365.171 62.9347 366.146 65.7816 366.25 66.3516C366.373 67.0173 366.446 68.2531 366.718 68.8973C366.99 69.5415 369.195 70.7883 369.177 70.5815C369.04 69.8346 369.071 69.6902 369.073 68.453C369.313 66.4799 370.172 65.4641 370.95 65.1623C372.575 64.5307 374.227 64.8548 375.789 66.5099C378.644 69.5363 378.279 71.9064 378.749 73.3977C378.796 73.546 378.93 73.6537 379.096 73.6953L400.927 79.1581C401.37 79.2692 401.746 78.8868 401.643 78.4841C401.627 78.4198 401.605 78.3307 401.571 78.1934C401.365 77.3707 400.658 73.4503 403.241 72.097C405.517 70.9046 409.077 73.0182 410.919 74.9292C412.395 76.4608 413.945 79.7936 414.544 81.7931C414.595 81.9621 414.735 82.0932 414.924 82.1396C416.483 82.523 420.791 83.4595 426.416 80.6912C438.32 74.8331 440.284 70.9654 440.65 69.9425Z" fill="url(#paint4_linear_40_122)"/>
</g>
<mask id="mask0_40_122" style="mask-type:alpha" maskUnits="userSpaceOnUse" x="365" y="42" width="76" height="41">
<path d="M440.655 69.8348C441.021 68.8093 440.737 68.0108 440.626 67.2622L440.274 65.3647C439.995 63.8577 439.773 62.5635 439.665 62.0717C439.557 61.58 439.908 60.0316 436.456 57.9472C433.356 56.0755 426.999 54.4327 425.479 54.3661C423.959 54.2996 416.342 47.6369 413.765 46.5416C406.07 43.2705 387.893 42.1903 383.599 43.0119C381.094 43.3944 371.542 49.9665 370.499 50.8224C365.109 55.2481 368.918 53.1528 365.41 58.9854C365.177 59.2953 365.221 60.6197 365.395 61.3502C365.412 61.4227 365.415 61.4978 365.398 61.5719C365.329 61.8714 365.216 62.332 365.211 62.4192C365.175 63.0362 366.153 65.8789 366.259 66.4483C366.382 67.1134 366.456 68.3482 366.73 68.9914C367.003 69.6345 369.209 70.8746 369.19 70.6679C369.171 70.4613 369.083 69.296 368.887 68.5191C368.633 67.1508 369.707 65.7353 370.956 65.2468C372.581 64.6112 374.207 64.7919 375.771 66.4419C378.89 69.7334 377.949 71.9325 378.358 73.4037C378.4 73.5538 378.536 73.6612 378.702 73.702L400.897 79.1434C401.35 79.2545 401.725 78.8542 401.621 78.4435C401.604 78.3762 401.583 78.2884 401.552 78.1643C401.345 77.3426 400.672 73.4495 403.253 72.0899C405.527 70.892 409.09 72.9947 410.934 74.8997C412.412 76.4264 413.966 79.7533 414.567 81.7501C414.618 81.9188 414.759 82.0495 414.947 82.0954C416.506 82.4742 420.816 83.3985 426.437 80.6164C438.332 74.729 440.29 70.8581 440.655 69.8348Z" fill="url(#paint5_linear_40_122)"/>
</mask>
<g mask="url(#mask0_40_122)">
<g filter="url(#filter10_ddi_40_122)">
<path d="M405.287 64.5344C402.999 63.5349 402.842 61.7593 398.81 57.3789C398.57 57.1174 398.642 56.7132 398.971 56.5129L413.847 47.4505C414.062 47.3198 414.351 47.2308 414.566 47.3406C415.125 47.6255 416.536 48.5221 420.091 51.2133C422.338 52.9143 422.788 53.3598 424.406 54.339C424.599 54.4557 424.336 54.9131 423.715 55.5741C421.735 57.6813 409.124 66.2098 405.287 64.5344Z" fill="url(#paint6_linear_40_122)"/>
</g>
<g filter="url(#filter11_di_40_122)">
<path d="M383.455 53.6315C378.655 52.5497 377.393 52.5496 374.477 54.1941C373.003 55.0254 371.167 55.9821 371.065 56.9855C370.963 57.9889 375.949 59.3802 377.406 59.7783C378.118 59.9728 403.436 66.4184 402.718 65.2411C401.837 63.7983 397.431 58.1852 395.931 56.8385C394.966 55.9718 388.255 54.7133 383.455 53.6315Z" fill="url(#paint7_linear_40_122)"/>
</g>
<g filter="url(#filter12_f_40_122)">
<path d="M412.587 71.4556C406.46 70.2069 402.717 67.8828 398.79 65.8553C409.5 66.5751 431.965 68.3368 431.701 68.7823C431.37 69.3393 429.939 70.199 424.893 71.4812C419.925 72.7435 413.288 71.5985 412.587 71.4556Z" fill="url(#paint8_linear_40_122)" fill-opacity="0.21"/>
</g>
<g filter="url(#filter13_f_40_122)">
<path d="M432.501 56.0705C432.135 55.8969 427.378 52.9457 423.99 51.672C427.311 55.5373 434.797 63.8876 435.322 63.738C435.978 63.5511 438.936 62.4602 439.495 60.4498C440.046 58.4703 432.961 56.2875 432.501 56.0705Z" fill="url(#paint9_linear_40_122)" fill-opacity="0.13"/>
</g>
<g filter="url(#filter14_di_40_122)">
<path d="M391.127 65.8083C391.113 65.7335 391.053 65.6745 390.971 65.6564L388.91 65.2008C388.752 65.1659 388.6 65.2925 388.627 65.4363L388.672 65.6811C388.686 65.756 388.747 65.815 388.829 65.833L390.889 66.2853C391.047 66.32 391.198 66.1934 391.172 66.0497L391.127 65.8083Z" fill="#323232"/>
</g>
<g filter="url(#filter15_di_40_122)">
<path d="M379.441 63.6262C379.427 63.5514 379.366 63.4925 379.284 63.4743L377.223 63.0187C377.066 62.9838 376.914 63.1104 376.94 63.2543L376.985 63.499C376.999 63.5739 377.06 63.6329 377.142 63.651L379.202 64.1033C379.36 64.1378 379.512 64.0113 379.485 63.8676L379.441 63.6262Z" fill="#323232"/>
</g>
<path d="M418.226 59.6841L404.461 53.2432C403.04 53.884 399.923 55.9036 399.318 56.2412C398.534 56.6788 398.646 57.098 398.646 57.098C398.687 57.3212 398.628 57.1708 398.975 57.5623C399.551 58.2121 400.024 58.7997 401.322 60.5079C403.551 63.442 404.05 64.1929 405.58 64.6664C406.732 65.023 408.954 64.7101 411.481 63.4186C413.74 62.2641 416.323 60.8968 418.226 59.6841Z" fill="#C4C4C4" fill-opacity="0.2"/>
<g opacity="0.17" filter="url(#filter16_f_40_122)">
<path d="M436.481 60.3863C433.403 63.5386 426.191 68.5837 422.779 69.7963" stroke="url(#paint10_linear_40_122)" stroke-width="85.1996" stroke-linecap="round" stroke-linejoin="round"/>
</g>
<g filter="url(#filter17_ddii_40_122)">
<path d="M437.986 61.5441C438.522 60.5913 438.211 59.9711 437.919 58.9594C437.91 58.9319 437.897 58.9033 437.882 58.8784C437.435 58.1216 439.047 59.5628 439.4 60.7065C439.516 61.0851 439.525 61.2866 439.549 61.652C439.561 61.8191 439.142 63.0194 439.238 63.224C439.335 63.4287 439.57 65.0647 439.62 65.2877C439.67 65.5104 439.058 67.1285 436.572 69.2732C434.506 71.055 431.348 72.57 431.015 72.6786C430.683 72.7872 430.162 71.8408 429.905 71.8324C429.231 71.8102 427.435 72.7973 426.751 73.0926C425.953 73.4372 424.09 74.2361 421.924 74.4017C419.243 74.6066 418.793 74.4197 416.164 73.7197C414.499 73.2763 413.135 72.0887 412.518 71.3258C412.351 71.1191 412.547 70.869 412.836 70.8967C414.602 71.0661 418.257 71.4982 422.22 71.1046C428.111 70.5196 432.236 67.2073 432.827 66.7315C435.31 64.7319 436.657 63.9102 437.986 61.5441Z" fill="#272727"/>
</g>
<mask id="mask1_40_122" style="mask-type:alpha" maskUnits="userSpaceOnUse" x="412" y="58" width="28" height="17">
<path d="M437.988 61.5329C438.415 60.773 438.302 60.005 438.041 59.3632C437.899 59.016 438.265 58.7455 438.538 59.0222C439.211 59.7063 439.56 60.3307 439.691 60.6867C439.808 61.0649 439.843 61.3127 439.868 61.6776C439.88 61.8446 439.11 62.9525 439.206 63.1569C439.302 63.3615 439.491 64.7001 439.578 65.1722C439.666 65.6443 439.062 67.1113 436.577 69.2572C434.513 71.0396 431.355 72.5569 431.023 72.6657C430.69 72.7745 430.169 71.8296 429.912 71.8215C429.238 71.8001 427.443 72.7883 426.759 73.0841C425.961 73.4293 424.099 74.2297 421.932 74.3976C419.252 74.6052 418.801 74.4189 416.173 73.7225C414.503 73.2801 413.136 72.0897 412.521 71.3284C412.354 71.1227 412.549 70.8778 412.838 70.9051C414.602 71.072 418.26 71.5009 422.227 71.1028C428.117 70.5117 432.24 67.1978 432.831 66.7217C435.313 64.7209 436.66 63.8986 437.988 61.5329Z" fill="#272727"/>
</mask>
<g mask="url(#mask1_40_122)">
<g filter="url(#filter18_d_40_122)">
<path d="M416.7 70.8698L424.512 69.473C424.513 69.4741 424.514 69.4754 424.514 69.4766C424.546 69.5276 424.588 69.6024 424.629 69.6955C424.711 69.8828 424.784 70.1387 424.757 70.423C424.732 70.7043 424.609 71.0192 424.288 71.3309C423.965 71.6447 423.434 71.9616 422.583 72.2321C422.078 72.3927 421.363 72.5281 420.605 72.5466C419.848 72.5651 419.06 72.4662 418.4 72.1681C418.043 72.0069 417.575 71.6432 417.186 71.3086C416.994 71.1432 416.826 70.9883 416.705 70.8747C416.703 70.8731 416.701 70.8714 416.7 70.8698Z" stroke="white" stroke-opacity="0.9" stroke-width="3.58537"/>
</g>
<g filter="url(#filter19_d_40_122)">
<path d="M437.996 59.31C437.997 59.311 437.998 59.312 437.999 59.3128C438.091 59.4112 438.21 59.5555 438.318 59.7392C438.532 60.106 438.695 60.6237 438.504 61.2443C438.449 61.421 438.349 61.5509 438.235 61.618C438.129 61.6803 437.992 61.7006 437.818 61.6272C437.699 61.5764 437.547 61.5763 437.411 61.5902C437.268 61.6049 437.117 61.6376 436.98 61.6736C436.922 61.6889 436.866 61.7049 436.814 61.7208L437.996 59.31Z" stroke="white" stroke-opacity="0.9" stroke-width="3.58537"/>
</g>
</g>
</g>
</g>
<defs>
<filter id="filter0_d_40_122" x="401.328" y="72.9333" width="11.407" height="12.0133" filterUnits="userSpaceOnUse" color-interpolation-filters="sRGB">
<feFlood flood-opacity="0" result="BackgroundImageFix"/>
<feColorMatrix in="SourceAlpha" type="matrix" values="0 0 0 0 0 0 0 0 0 0 0 0 0 0 0 0 0 0 127 0" result="hardAlpha"/>
<feOffset/>
<feGaussianBlur stdDeviation="0.645451"/>
<feComposite in2="hardAlpha" operator="out"/>
<feColorMatrix type="matrix" values="0 0 0 0 0 0 0 0 0 0 0 0 0 0 0 0 0 0 0.25 0"/>
<feBlend mode="normal" in2="BackgroundImageFix" result="effect1_dropShadow_40_122"/>
<feBlend mode="normal" in="SourceGraphic" in2="effect1_dropShadow_40_122" result="shape"/>
</filter>
<filter id="filter1_di_40_122" x="399.489" y="74.7634" width="11.9812" height="10.6779" filterUnits="userSpaceOnUse" color-interpolation-filters="sRGB">
<feFlood flood-opacity="0" result="BackgroundImageFix"/>
<feColorMatrix in="SourceAlpha" type="matrix" values="0 0 0 0 0 0 0 0 0 0 0 0 0 0 0 0 0 0 127 0" result="hardAlpha"/>
<feOffset dy="0.516361"/>
<feGaussianBlur stdDeviation="0.387271"/>
<feColorMatrix type="matrix" values="0 0 0 0 1 0 0 0 0 1 0 0 0 0 1 0 0 0 0.41 0"/>
<feBlend mode="normal" in2="BackgroundImageFix" result="effect1_dropShadow_40_122"/>
<feBlend mode="normal" in="SourceGraphic" in2="effect1_dropShadow_40_122" result="shape"/>
<feColorMatrix in="SourceAlpha" type="matrix" values="0 0 0 0 0 0 0 0 0 0 0 0 0 0 0 0 0 0 127 0" result="hardAlpha"/>
<feOffset dx="-3.87271" dy="2.5818"/>
<feGaussianBlur stdDeviation="1.93635"/>
<feComposite in2="hardAlpha" operator="arithmetic" k2="-1" k3="1"/>
<feColorMatrix type="matrix" values="0 0 0 0 0 0 0 0 0 0 0 0 0 0 0 0 0 0 0.25 0"/>
<feBlend mode="normal" in2="shape" result="effect2_innerShadow_40_122"/>
</filter>
<filter id="filter2_d_40_122" x="401.292" y="72.7155" width="11.558" height="12.4338" filterUnits="userSpaceOnUse" color-interpolation-filters="sRGB">
<feFlood flood-opacity="0" result="BackgroundImageFix"/>
<feColorMatrix in="SourceAlpha" type="matrix" values="0 0 0 0 0 0 0 0 0 0 0 0 0 0 0 0 0 0 127 0" result="hardAlpha"/>
<feOffset/>
<feGaussianBlur stdDeviation="0.820596"/>
<feComposite in2="hardAlpha" operator="out"/>
<feColorMatrix type="matrix" values="0 0 0 0 0 0 0 0 0 0 0 0 0 0 0 0 0 0 0.25 0"/>
<feBlend mode="normal" in2="BackgroundImageFix" result="effect1_dropShadow_40_122"/>
<feBlend mode="normal" in="SourceGraphic" in2="effect1_dropShadow_40_122" result="shape"/>
</filter>
<filter id="filter3_di_40_122" x="401.908" y="75.402" width="8.92467" height="8.31369" filterUnits="userSpaceOnUse" color-interpolation-filters="sRGB">
<feFlood flood-opacity="0" result="BackgroundImageFix"/>
<feColorMatrix in="SourceAlpha" type="matrix" values="0 0 0 0 0 0 0 0 0 0 0 0 0 0 0 0 0 0 127 0" result="hardAlpha"/>
<feOffset dy="0.559715"/>
<feGaussianBlur stdDeviation="0.349822"/>
<feColorMatrix type="matrix" values="0 0 0 0 1 0 0 0 0 1 0 0 0 0 1 0 0 0 0.59 0"/>
<feBlend mode="normal" in2="BackgroundImageFix" result="effect1_dropShadow_40_122"/>
<feBlend mode="normal" in="SourceGraphic" in2="effect1_dropShadow_40_122" result="shape"/>
<feColorMatrix in="SourceAlpha" type="matrix" values="0 0 0 0 0 0 0 0 0 0 0 0 0 0 0 0 0 0 127 0" result="hardAlpha"/>
<feOffset dx="-2.09893" dy="1.39929"/>
<feGaussianBlur stdDeviation="1.04947"/>
<feComposite in2="hardAlpha" operator="arithmetic" k2="-1" k3="1"/>
<feColorMatrix type="matrix" values="0 0 0 0 0 0 0 0 0 0 0 0 0 0 0 0 0 0 0.25 0"/>
<feBlend mode="normal" in2="shape" result="effect2_innerShadow_40_122"/>
</filter>
<filter id="filter4_d_40_122" x="368.952" y="65.8302" width="9.04421" height="10.7984" filterUnits="userSpaceOnUse" color-interpolation-filters="sRGB">
<feFlood flood-opacity="0" result="BackgroundImageFix"/>
<feColorMatrix in="SourceAlpha" type="matrix" values="0 0 0 0 0 0 0 0 0 0 0 0 0 0 0 0 0 0 127 0" result="hardAlpha"/>
<feOffset/>
<feGaussianBlur stdDeviation="0.552069"/>
<feComposite in2="hardAlpha" operator="out"/>
<feColorMatrix type="matrix" values="0 0 0 0 0 0 0 0 0 0 0 0 0 0 0 0 0 0 0.25 0"/>
<feBlend mode="normal" in2="BackgroundImageFix" result="effect1_dropShadow_40_122"/>
<feBlend mode="normal" in="SourceGraphic" in2="effect1_dropShadow_40_122" result="shape"/>
</filter>
<filter id="filter5_di_40_122" x="367.319" y="67.4396" width="9.65568" height="9.56783" filterUnits="userSpaceOnUse" color-interpolation-filters="sRGB">
<feFlood flood-opacity="0" result="BackgroundImageFix"/>
<feColorMatrix in="SourceAlpha" type="matrix" values="0 0 0 0 0 0 0 0 0 0 0 0 0 0 0 0 0 0 127 0" result="hardAlpha"/>
<feOffset dy="0.441655"/>
<feGaussianBlur stdDeviation="0.331241"/>
<feColorMatrix type="matrix" values="0 0 0 0 1 0 0 0 0 1 0 0 0 0 1 0 0 0 0.41 0"/>
<feBlend mode="normal" in2="BackgroundImageFix" result="effect1_dropShadow_40_122"/>
<feBlend mode="normal" in="SourceGraphic" in2="effect1_dropShadow_40_122" result="shape"/>
<feColorMatrix in="SourceAlpha" type="matrix" values="0 0 0 0 0 0 0 0 0 0 0 0 0 0 0 0 0 0 127 0" result="hardAlpha"/>
<feOffset dx="-3.31241" dy="2.20827"/>
<feGaussianBlur stdDeviation="1.65621"/>
<feComposite in2="hardAlpha" operator="arithmetic" k2="-1" k3="1"/>
<feColorMatrix type="matrix" values="0 0 0 0 0 0 0 0 0 0 0 0 0 0 0 0 0 0 0.25 0"/>
<feBlend mode="normal" in2="shape" result="effect2_innerShadow_40_122"/>
</filter>
<filter id="filter6_d_40_122" x="369.265" y="66.2285" width="8.44602" height="10.2365" filterUnits="userSpaceOnUse" color-interpolation-filters="sRGB">
<feFlood flood-opacity="0" result="BackgroundImageFix"/>
<feColorMatrix in="SourceAlpha" type="matrix" values="0 0 0 0 0 0 0 0 0 0 0 0 0 0 0 0 0 0 127 0" result="hardAlpha"/>
<feOffset/>
<feGaussianBlur stdDeviation="0.490839"/>
<feComposite in2="hardAlpha" operator="out"/>
<feColorMatrix type="matrix" values="0 0 0 0 0 0 0 0 0 0 0 0 0 0 0 0 0 0 0.25 0"/>
<feBlend mode="normal" in2="BackgroundImageFix" result="effect1_dropShadow_40_122"/>
<feBlend mode="normal" in="SourceGraphic" in2="effect1_dropShadow_40_122" result="shape"/>
</filter>
<filter id="filter7_d_40_122" x="368.547" y="65.5103" width="9.88234" height="11.6729" filterUnits="userSpaceOnUse" color-interpolation-filters="sRGB">
<feFlood flood-opacity="0" result="BackgroundImageFix"/>
<feColorMatrix in="SourceAlpha" type="matrix" values="0 0 0 0 0 0 0 0 0 0 0 0 0 0 0 0 0 0 127 0" result="hardAlpha"/>
<feOffset/>
<feGaussianBlur stdDeviation="0.849919"/>
<feComposite in2="hardAlpha" operator="out"/>
<feColorMatrix type="matrix" values="0 0 0 0 0 0 0 0 0 0 0 0 0 0 0 0 0 0 0.25 0"/>
<feBlend mode="normal" in2="BackgroundImageFix" result="effect1_dropShadow_40_122"/>
<feBlend mode="normal" in="SourceGraphic" in2="effect1_dropShadow_40_122" result="shape"/>
</filter>
<filter id="filter8_di_40_122" x="368.843" y="68.1407" width="7.68019" height="7.73222" filterUnits="userSpaceOnUse" color-interpolation-filters="sRGB">
<feFlood flood-opacity="0" result="BackgroundImageFix"/>
<feColorMatrix in="SourceAlpha" type="matrix" values="0 0 0 0 0 0 0 0 0 0 0 0 0 0 0 0 0 0 127 0" result="hardAlpha"/>
<feOffset dy="0.579716"/>
<feGaussianBlur stdDeviation="0.362322"/>
<feColorMatrix type="matrix" values="0 0 0 0 1 0 0 0 0 1 0 0 0 0 1 0 0 0 0.59 0"/>
<feBlend mode="normal" in2="BackgroundImageFix" result="effect1_dropShadow_40_122"/>
<feBlend mode="normal" in="SourceGraphic" in2="effect1_dropShadow_40_122" result="shape"/>
<feColorMatrix in="SourceAlpha" type="matrix" values="0 0 0 0 0 0 0 0 0 0 0 0 0 0 0 0 0 0 127 0" result="hardAlpha"/>
<feOffset dx="-2.17393" dy="1.44929"/>
<feGaussianBlur stdDeviation="1.08697"/>
<feComposite in2="hardAlpha" operator="arithmetic" k2="-1" k3="1"/>
<feColorMatrix type="matrix" values="0 0 0 0 0 0 0 0 0 0 0 0 0 0 0 0 0 0 0.25 0"/>
<feBlend mode="normal" in2="shape" result="effect2_innerShadow_40_122"/>
</filter>
<filter id="filter9_ii_40_122" x="365.207" y="29.5686" width="85.4725" height="53.0368" filterUnits="userSpaceOnUse" color-interpolation-filters="sRGB">
<feFlood flood-opacity="0" result="BackgroundImageFix"/>
<feBlend mode="normal" in="SourceGraphic" in2="BackgroundImageFix" result="shape"/>
<feColorMatrix in="SourceAlpha" type="matrix" values="0 0 0 0 0 0 0 0 0 0 0 0 0 0 0 0 0 0 127 0" result="hardAlpha"/>
<feOffset dx="9.84715" dy="-13.1295"/>
<feGaussianBlur stdDeviation="39.3886"/>
<feComposite in2="hardAlpha" operator="arithmetic" k2="-1" k3="1"/>
<feColorMatrix type="matrix" values="0 0 0 0 0 0 0 0 0 0 0 0 0 0 0 0 0 0 0.07 0"/>
<feBlend mode="normal" in2="shape" result="effect1_innerShadow_40_122"/>
<feColorMatrix in="SourceAlpha" type="matrix" values="0 0 0 0 0 0 0 0 0 0 0 0 0 0 0 0 0 0 127 0" result="hardAlpha"/>
<feOffset dy="-1.64119"/>
<feGaussianBlur stdDeviation="3.28238"/>
<feComposite in2="hardAlpha" operator="arithmetic" k2="-1" k3="1"/>
<feColorMatrix type="matrix" values="0 0 0 0 0 0 0 0 0 0 0 0 0 0 0 0 0 0 0.09 0"/>
<feBlend mode="normal" in2="effect1_innerShadow_40_122" result="effect2_innerShadow_40_122"/>
</filter>
<filter id="filter10_ddi_40_122" x="393.505" y="43.4184" width="33.5453" height="25.2054" filterUnits="userSpaceOnUse" color-interpolation-filters="sRGB">
<feFlood flood-opacity="0" result="BackgroundImageFix"/>
<feColorMatrix in="SourceAlpha" type="matrix" values="0 0 0 0 0 0 0 0 0 0 0 0 0 0 0 0 0 0 127 0" result="hardAlpha"/>
<feOffset dx="-2.5818" dy="1.2909"/>
<feGaussianBlur stdDeviation="1.2909"/>
<feColorMatrix type="matrix" values="0 0 0 0 1 0 0 0 0 1 0 0 0 0 1 0 0 0 0.28 0"/>
<feBlend mode="normal" in2="BackgroundImageFix" result="effect1_dropShadow_40_122"/>
<feColorMatrix in="SourceAlpha" type="matrix" values="0 0 0 0 0 0 0 0 0 0 0 0 0 0 0 0 0 0 127 0" result="hardAlpha"/>
<feOffset dy="-1.2909"/>
<feGaussianBlur stdDeviation="1.2909"/>
<feColorMatrix type="matrix" values="0 0 0 0 1 0 0 0 0 1 0 0 0 0 1 0 0 0 0.56 0"/>
<feBlend mode="normal" in2="effect1_dropShadow_40_122" result="effect2_dropShadow_40_122"/>
<feBlend mode="normal" in="SourceGraphic" in2="effect2_dropShadow_40_122" result="shape"/>
<feColorMatrix in="SourceAlpha" type="matrix" values="0 0 0 0 0 0 0 0 0 0 0 0 0 0 0 0 0 0 127 0" result="hardAlpha"/>
<feOffset dx="-1.2909" dy="3.87271"/>
<feGaussianBlur stdDeviation="1.93635"/>
<feComposite in2="hardAlpha" operator="arithmetic" k2="-1" k3="1"/>
<feColorMatrix type="matrix" values="0 0 0 0 0 0 0 0 0 0 0 0 0 0 0 0 0 0 0.75 0"/>
<feBlend mode="normal" in2="shape" result="effect3_innerShadow_40_122"/>
</filter>
<filter id="filter11_di_40_122" x="364.727" y="52.8795" width="38.9561" height="17.0918" filterUnits="userSpaceOnUse" color-interpolation-filters="sRGB">
<feFlood flood-opacity="0" result="BackgroundImageFix"/>
<feColorMatrix in="SourceAlpha" type="matrix" values="0 0 0 0 0 0 0 0 0 0 0 0 0 0 0 0 0 0 127 0" result="hardAlpha"/>
<feOffset dy="0.950394"/>
<feGaussianBlur stdDeviation="0.475197"/>
<feColorMatrix type="matrix" values="0 0 0 0 0.925374 0 0 0 0 0.925374 0 0 0 0 0.925374 0 0 0 0.37 0"/>
<feBlend mode="normal" in2="BackgroundImageFix" result="effect1_dropShadow_40_122"/>
<feBlend mode="normal" in="SourceGraphic" in2="effect1_dropShadow_40_122" result="shape"/>
<feColorMatrix in="SourceAlpha" type="matrix" values="0 0 0 0 0 0 0 0 0 0 0 0 0 0 0 0 0 0 127 0" result="hardAlpha"/>
<feOffset dx="-6.33629" dy="4.58652"/>
<feGaussianBlur stdDeviation="3.16814"/>
<feComposite in2="hardAlpha" operator="arithmetic" k2="-1" k3="1"/>
<feColorMatrix type="matrix" values="0 0 0 0 0 0 0 0 0 0 0 0 0 0 0 0 0 0 0.63 0"/>
<feBlend mode="normal" in2="shape" result="effect2_innerShadow_40_122"/>
</filter>
<filter id="filter12_f_40_122" x="380.717" y="47.7827" width="69.0585" height="42.358" filterUnits="userSpaceOnUse" color-interpolation-filters="sRGB">
<feFlood flood-opacity="0" result="BackgroundImageFix"/>
<feBlend mode="normal" in="SourceGraphic" in2="BackgroundImageFix" result="shape"/>
<feGaussianBlur stdDeviation="9.0363" result="effect1_foregroundBlur_40_122"/>
</filter>
<filter id="filter13_f_40_122" x="412.372" y="40.0539" width="38.7718" height="35.3042" filterUnits="userSpaceOnUse" color-interpolation-filters="sRGB">
<feFlood flood-opacity="0" result="BackgroundImageFix"/>
<feBlend mode="normal" in="SourceGraphic" in2="BackgroundImageFix" result="shape"/>
<feGaussianBlur stdDeviation="5.80905" result="effect1_foregroundBlur_40_122"/>
</filter>
<filter id="filter14_di_40_122" x="387.983" y="63.9144" width="3.83179" height="5.57801" filterUnits="userSpaceOnUse" color-interpolation-filters="sRGB">
<feFlood flood-opacity="0" result="BackgroundImageFix"/>
<feColorMatrix in="SourceAlpha" type="matrix" values="0 0 0 0 0 0 0 0 0 0 0 0 0 0 0 0 0 0 127 0" result="hardAlpha"/>
<feOffset dy="-0.64026"/>
<feGaussianBlur stdDeviation="0.32013"/>
<feColorMatrix type="matrix" values="0 0 0 0 0.78755 0 0 0 0 0.78755 0 0 0 0 0.78755 0 0 0 0.19 0"/>
<feBlend mode="normal" in2="BackgroundImageFix" result="effect1_dropShadow_40_122"/>
<feBlend mode="normal" in="SourceGraphic" in2="effect1_dropShadow_40_122" result="shape"/>
<feColorMatrix in="SourceAlpha" type="matrix" values="0 0 0 0 0 0 0 0 0 0 0 0 0 0 0 0 0 0 127 0" result="hardAlpha"/>
<feOffset dy="3.2013"/>
<feGaussianBlur stdDeviation="1.60065"/>
<feComposite in2="hardAlpha" operator="arithmetic" k2="-1" k3="1"/>
<feColorMatrix type="matrix" values="0 0 0 0 0 0 0 0 0 0 0 0 0 0 0 0 0 0 0.74 0"/>
<feBlend mode="normal" in2="shape" result="effect2_innerShadow_40_122"/>
</filter>
<filter id="filter15_di_40_122" x="376.297" y="61.7323" width="3.83167" height="5.57801" filterUnits="userSpaceOnUse" color-interpolation-filters="sRGB">
<feFlood flood-opacity="0" result="BackgroundImageFix"/>
<feColorMatrix in="SourceAlpha" type="matrix" values="0 0 0 0 0 0 0 0 0 0 0 0 0 0 0 0 0 0 127 0" result="hardAlpha"/>
<feOffset dy="-0.64026"/>
<feGaussianBlur stdDeviation="0.32013"/>
<feColorMatrix type="matrix" values="0 0 0 0 0.78755 0 0 0 0 0.78755 0 0 0 0 0.78755 0 0 0 0.19 0"/>
<feBlend mode="normal" in2="BackgroundImageFix" result="effect1_dropShadow_40_122"/>
<feBlend mode="normal" in="SourceGraphic" in2="effect1_dropShadow_40_122" result="shape"/>
<feColorMatrix in="SourceAlpha" type="matrix" values="0 0 0 0 0 0 0 0 0 0 0 0 0 0 0 0 0 0 127 0" result="hardAlpha"/>
<feOffset dy="3.2013"/>
<feGaussianBlur stdDeviation="1.60065"/>
<feComposite in2="hardAlpha" operator="arithmetic" k2="-1" k3="1"/>
<feColorMatrix type="matrix" values="0 0 0 0 0 0 0 0 0 0 0 0 0 0 0 0 0 0 0.74 0"/>
<feBlend mode="normal" in2="shape" result="effect2_innerShadow_40_122"/>
</filter>
<filter id="filter16_f_40_122" x="373.726" y="11.3186" width="111.796" height="107.557" filterUnits="userSpaceOnUse" color-interpolation-filters="sRGB">
<feFlood flood-opacity="0" result="BackgroundImageFix"/>
<feBlend mode="normal" in="SourceGraphic" in2="BackgroundImageFix" result="shape"/>
<feGaussianBlur stdDeviation="3.22726" result="effect1_foregroundBlur_40_122"/>
</filter>
<filter id="filter17_ddii_40_122" x="410.957" y="56.4185" width="30.1651" height="28.3981" filterUnits="userSpaceOnUse" color-interpolation-filters="sRGB">
<feFlood flood-opacity="0" result="BackgroundImageFix"/>
<feColorMatrix in="SourceAlpha" type="matrix" values="0 0 0 0 0 0 0 0 0 0 0 0 0 0 0 0 0 0 127 0" result="hardAlpha"/>
<feOffset dy="1.12467"/>
<feGaussianBlur stdDeviation="0.749782"/>
<feColorMatrix type="matrix" values="0 0 0 0 0 0 0 0 0 0 0 0 0 0 0 0 0 0 0.57 0"/>
<feBlend mode="normal" in2="BackgroundImageFix" result="effect1_dropShadow_40_122"/>
<feColorMatrix in="SourceAlpha" type="matrix" values="0 0 0 0 0 0 0 0 0 0 0 0 0 0 0 0 0 0 127 0" result="hardAlpha"/>
<feOffset dy="-0.749782"/>
<feGaussianBlur stdDeviation="0.749782"/>
<feColorMatrix type="matrix" values="0 0 0 0 0 0 0 0 0 0 0 0 0 0 0 0 0 0 1 0"/>
<feBlend mode="normal" in2="effect1_dropShadow_40_122" result="effect2_dropShadow_40_122"/>
<feBlend mode="normal" in="SourceGraphic" in2="effect2_dropShadow_40_122" result="shape"/>
<feColorMatrix in="SourceAlpha" type="matrix" values="0 0 0 0 0 0 0 0 0 0 0 0 0 0 0 0 0 0 127 0" result="hardAlpha"/>
<feOffset dy="10.3366"/>
<feGaussianBlur stdDeviation="10.5341"/>
<feComposite in2="hardAlpha" operator="arithmetic" k2="-1" k3="1"/>
<feColorMatrix type="matrix" values="0 0 0 0 0 0 0 0 0 0 0 0 0 0 0 0 0 0 1 0"/>
<feBlend mode="normal" in2="shape" result="effect3_innerShadow_40_122"/>
<feColorMatrix in="SourceAlpha" type="matrix" values="0 0 0 0 0 0 0 0 0 0 0 0 0 0 0 0 0 0 127 0" result="hardAlpha"/>
<feOffset dy="-1.12639"/>
<feGaussianBlur stdDeviation="1.12639"/>
<feComposite in2="hardAlpha" operator="arithmetic" k2="-1" k3="1"/>
<feColorMatrix type="matrix" values="0 0 0 0 0 0 0 0 0 0 0 0 0 0 0 0 0 0 0.5 0"/>
<feBlend mode="normal" in2="effect3_innerShadow_40_122" result="effect4_innerShadow_40_122"/>
</filter>
<filter id="filter18_d_40_122" x="412.584" y="67.5009" width="16.6507" height="9.81057" filterUnits="userSpaceOnUse" color-interpolation-filters="sRGB">
<feFlood flood-opacity="0" result="BackgroundImageFix"/>
<feColorMatrix in="SourceAlpha" type="matrix" values="0 0 0 0 0 0 0 0 0 0 0 0 0 0 0 0 0 0 127 0" result="hardAlpha"/>
<feOffset dx="1.19512" dy="1.48457"/>
<feGaussianBlur stdDeviation="0.742284"/>
<feColorMatrix type="matrix" values="0 0 0 0 1 0 0 0 0 1 0 0 0 0 1 0 0 0 0.24 0"/>
<feBlend mode="normal" in2="BackgroundImageFix" result="effect1_dropShadow_40_122"/>
<feBlend mode="normal" in="SourceGraphic" in2="effect1_dropShadow_40_122" result="shape"/>
</filter>
<filter id="filter19_d_40_122" x="433.106" y="53.833" width="9.95473" height="13.7598" filterUnits="userSpaceOnUse" color-interpolation-filters="sRGB">
<feFlood flood-opacity="0" result="BackgroundImageFix"/>
<feColorMatrix in="SourceAlpha" type="matrix" values="0 0 0 0 0 0 0 0 0 0 0 0 0 0 0 0 0 0 127 0" result="hardAlpha"/>
<feOffset dx="1.19512" dy="1.48457"/>
<feGaussianBlur stdDeviation="0.742284"/>
<feColorMatrix type="matrix" values="0 0 0 0 1 0 0 0 0 1 0 0 0 0 1 0 0 0 0.24 0"/>
<feBlend mode="normal" in2="BackgroundImageFix" result="effect1_dropShadow_40_122"/>
<feBlend mode="normal" in="SourceGraphic" in2="effect1_dropShadow_40_122" result="shape"/>
</filter>
<linearGradient id="paint0_linear_40_122" x1="404.762" y1="83.7448" x2="401.472" y2="79.1925" gradientUnits="userSpaceOnUse">
<stop stop-color="#3F3F3F"/>
<stop offset="1" stop-color="#5C5C5C"/>
</linearGradient>
<linearGradient id="paint1_linear_40_122" x1="404.979" y1="83.5551" x2="401.76" y2="79.2092" gradientUnits="userSpaceOnUse">
<stop stop-color="#AAAAAA"/>
<stop offset="1" stop-color="#C2C2C2"/>
</linearGradient>
<linearGradient id="paint2_linear_40_122" x1="370.754" y1="74.9943" x2="368.648" y2="70.7488" gradientUnits="userSpaceOnUse">
<stop stop-color="#3F3F3F"/>
<stop offset="1" stop-color="#5C5C5C"/>
</linearGradient>
<linearGradient id="paint3_linear_40_122" x1="370.92" y1="74.8789" x2="368.957" y2="70.7469" gradientUnits="userSpaceOnUse">
<stop stop-color="#AAAAAA"/>
<stop offset="1" stop-color="#C2C2C2"/>
</linearGradient>
<linearGradient id="paint4_linear_40_122" x1="379.306" y1="71.0372" x2="434.72" y2="51.4095" gradientUnits="userSpaceOnUse">
<stop stop-color="#4506FA"/>
<stop offset="1" stop-color="#2F0DFF"/>
</linearGradient>
<linearGradient id="paint5_linear_40_122" x1="413.032" y1="73.7868" x2="391.709" y2="39.546" gradientUnits="userSpaceOnUse">
<stop stop-color="#CECBCB"/>
<stop offset="1" stop-color="white"/>
</linearGradient>
<linearGradient id="paint6_linear_40_122" x1="409.316" y1="36.399" x2="395.267" y2="58.56" gradientUnits="userSpaceOnUse">
<stop stop-color="#E8EAE9"/>
<stop offset="0.498386" stop-color="#707072"/>
<stop offset="1" stop-color="#2F3032"/>
</linearGradient>
<linearGradient id="paint7_linear_40_122" x1="432.571" y1="96.6917" x2="413.614" y2="44.2048" gradientUnits="userSpaceOnUse">
<stop stop-color="#E8EAE9"/>
<stop offset="0.498386" stop-color="#707072"/>
<stop offset="1" stop-color="#2F3032"/>
</linearGradient>
<linearGradient id="paint8_linear_40_122" x1="415.403" y1="73.9449" x2="416.127" y2="67.0457" gradientUnits="userSpaceOnUse">
<stop stop-color="#ECEAEA"/>
<stop offset="1" stop-color="white" stop-opacity="0"/>
</linearGradient>
<linearGradient id="paint9_linear_40_122" x1="441.302" y1="57.2357" x2="432.911" y2="62.4933" gradientUnits="userSpaceOnUse">
<stop stop-color="#ECEAEA"/>
<stop offset="1" stop-color="white" stop-opacity="0"/>
</linearGradient>
<linearGradient id="paint10_linear_40_122" x1="430.452" y1="68.2536" x2="428.528" y2="65.5272" gradientUnits="userSpaceOnUse">
<stop stop-color="#4B4B4B"/>
<stop offset="0.899322" stop-opacity="0"/>
</linearGradient>
<clipPath id="clip0_40_122">
<rect width="1440" height="413" fill="white"/>
</clipPath>
</defs>
</svg>
